if (_typeface_js && _typeface_js.loadFace) _typeface_js.loadFace({"glyphs":{"S":{"x_min":86,"x_max":665,"ha":751,"o":"m 563 614 q 543 673 556 646 q 515 721 531 701 q 489 746 506 733 q 451 771 472 760 q 408 791 431 783 q 362 799 385 799 q 312 788 333 799 q 276 762 290 778 q 255 726 262 746 q 249 685 249 705 q 258 635 249 655 q 285 599 267 614 q 333 573 304 585 q 402 550 362 561 q 520 504 470 529 q 601 444 569 479 q 649 363 634 410 q 665 254 665 317 q 645 147 665 196 q 592 64 626 98 q 513 10 559 29 q 414 -8 467 -8 q 341 3 374 -8 q 284 25 307 14 q 241 44 260 36 q 205 53 221 53 q 176 36 188 53 q 155 0 164 19 l 86 0 l 86 299 l 155 299 q 171 246 160 271 q 198 196 181 222 q 275 124 224 154 q 396 95 325 95 q 469 126 441 95 q 498 200 498 158 q 485 251 498 229 q 455 288 473 272 q 416 315 437 304 q 378 332 395 325 l 270 376 q 136 478 176 415 q 96 646 96 542 q 115 745 96 701 q 168 820 134 789 q 248 868 203 851 q 346 885 294 885 q 410 880 378 885 q 461 868 442 875 q 494 858 478 862 q 525 854 510 854 q 546 861 537 854 q 562 875 555 868 l 631 875 l 631 614 l 563 614 "},"/":{"x_min":68,"x_max":479,"ha":556,"o":"m 385 886 l 479 886 l 167 0 l 68 0 l 385 886 "},"y":{"x_min":75,"x_max":741.84375,"ha":811,"o":"m 75 875 l 409 875 l 409 796 l 366 789 q 337 768 343 784 q 345 727 331 751 l 434 566 l 521 723 q 532 766 536 748 q 508 789 527 784 l 465 796 l 465 875 l 741 875 l 741 796 l 694 789 q 671 771 680 786 q 650 737 661 757 l 496 458 l 496 197 q 505 119 496 148 q 541 85 515 91 l 586 79 l 586 0 l 249 0 l 249 79 l 294 85 q 330 119 320 91 q 340 197 340 148 l 340 398 l 183 697 q 148 762 163 737 q 111 790 133 787 l 75 796 l 75 875 "},"Ž":{"x_min":77,"x_max":663,"ha":745,"o":"m 101 875 l 663 875 l 663 795 l 325 198 q 314 171 318 187 q 310 139 310 154 q 323 117 310 125 q 353 110 336 110 l 444 110 q 546 134 518 110 q 575 208 575 158 l 575 285 l 663 285 l 663 0 l 77 0 l 77 79 l 411 679 q 424 710 421 696 q 428 737 428 725 q 416 759 428 751 q 386 767 404 767 l 321 767 q 218 742 247 767 q 189 666 189 718 l 189 591 l 101 591 l 101 875 m 385 994 l 238 1104 l 258 1157 l 383 1119 l 510 1151 l 531 1097 l 385 994 "},"Á":{"x_min":65.28125,"x_max":757,"ha":831,"o":"m 445 407 l 400 619 l 394 619 l 336 407 l 445 407 m 304 283 l 293 241 q 288 138 277 178 q 323 88 300 97 l 359 79 l 359 0 l 65 0 l 65 79 l 95 88 q 120 104 108 93 q 143 137 131 115 q 165 195 154 159 q 193 284 177 230 l 352 875 l 481 875 l 645 240 q 682 134 665 166 q 718 94 700 101 l 757 79 l 757 0 l 415 0 l 415 79 l 451 88 q 488 129 479 97 q 481 241 498 162 l 472 283 l 304 283 m 336 979 l 325 1026 l 513 1114 q 558 1118 534 1122 q 589 1084 582 1114 q 584 1039 595 1058 q 544 1016 573 1020 l 336 979 "},"g":{"x_min":97,"x_max":748.890625,"ha":817,"o":"m 660 0 l 586 0 q 574 17 582 10 q 555 25 566 25 q 530 19 544 25 q 498 6 515 12 q 452 -4 482 -1 q 388 -8 422 -8 q 255 22 311 -8 q 164 102 199 53 q 112 213 128 151 q 97 339 97 275 l 97 571 q 116 686 97 629 q 172 787 135 743 q 263 857 209 830 q 384 885 316 885 q 497 858 441 885 q 531 842 514 851 q 564 834 548 834 q 581 849 576 834 q 586 879 586 865 l 681 879 l 681 467 l 538 467 q 528 576 538 518 q 501 682 519 633 q 454 763 483 731 q 385 795 425 795 q 333 781 353 795 q 303 747 314 768 q 289 697 293 725 q 285 640 285 669 l 285 271 q 291 208 285 242 q 314 146 298 175 q 354 99 330 118 q 411 81 378 81 q 456 86 433 81 q 496 106 478 92 q 525 148 514 121 q 537 217 537 174 q 522 274 537 257 q 487 291 507 291 l 464 291 l 464 397 l 748 397 l 748 291 l 701 291 q 668 270 676 291 q 660 218 660 249 l 660 0 "},"²":{"x_min":40,"x_max":410,"ha":457,"o":"m 410 538 q 376 430 410 460 q 287 401 343 401 q 247 406 265 401 q 217 417 230 411 q 180 432 198 427 q 145 438 161 438 q 109 405 113 438 l 47 405 l 47 445 q 56 509 47 482 q 80 555 65 535 q 115 591 95 575 q 155 620 134 606 q 238 688 213 659 q 264 760 264 717 q 247 809 264 789 q 194 830 230 828 q 162 825 174 830 q 142 813 149 820 q 132 797 135 806 q 130 782 130 788 q 137 768 130 773 q 155 763 145 764 q 182 747 173 760 q 192 714 192 734 q 172 674 192 689 q 124 659 152 659 q 62 685 84 659 q 40 752 40 711 q 55 815 40 788 q 98 860 71 842 q 156 887 124 878 q 221 897 188 897 q 286 887 255 897 q 342 860 317 878 q 382 817 367 842 q 397 759 397 792 q 383 691 397 719 q 350 643 370 663 q 306 612 330 624 q 262 592 283 600 q 195 559 229 578 q 149 517 162 539 l 152 516 q 173 520 163 518 q 204 523 183 523 q 226 519 215 523 q 248 513 237 516 q 269 509 259 511 q 290 507 279 507 q 323 525 311 507 q 335 586 335 544 l 410 586 l 410 538 "},"–":{"x_min":85,"x_max":500,"ha":650,"o":"m 85 474 l 500 474 l 500 368 l 85 368 l 85 474 "},"ë":{"x_min":73.09375,"x_max":620,"ha":715,"o":"m 319 412 l 319 184 q 338 116 319 143 q 410 89 357 89 q 470 101 447 89 q 507 135 494 114 q 526 185 520 157 q 532 245 532 214 l 532 314 l 620 314 l 620 0 l 73 0 l 73 79 l 117 85 q 152 119 142 90 q 162 197 162 148 l 162 677 q 150 755 162 726 q 117 789 138 784 l 73 796 l 73 875 l 620 875 l 620 572 l 532 572 l 532 630 q 495 749 532 709 q 410 789 459 789 q 338 764 357 789 q 319 691 319 740 l 319 511 l 456 511 l 456 412 l 319 412 m 476 1107 q 516 1091 500 1107 q 532 1048 532 1076 q 516 1005 532 1020 q 476 990 500 990 q 436 1005 452 990 q 421 1048 421 1020 q 436 1091 421 1076 q 476 1107 452 1107 m 259 1107 q 298 1091 282 1107 q 315 1048 315 1076 q 298 1005 315 1020 q 259 990 282 990 q 220 1005 235 990 q 205 1048 205 1020 q 220 1091 205 1076 q 259 1107 235 1107 "},"ƒ":{"x_min":-15,"x_max":666,"ha":708,"o":"m 110 411 l 110 482 l 202 482 q 222 666 203 591 q 276 787 242 741 q 357 855 310 834 q 458 876 404 876 q 608 830 551 876 q 666 700 666 784 q 637 596 666 638 q 561 553 608 555 q 493 575 519 552 q 467 634 467 599 q 482 684 467 668 q 521 706 498 700 q 539 721 536 709 q 542 746 542 734 q 527 773 542 760 q 475 787 512 787 q 396 712 420 787 q 369 482 371 638 l 515 482 l 515 411 l 372 411 q 372 331 373 374 q 369 241 372 287 q 362 152 366 195 q 352 77 358 109 q 310 -99 335 -31 q 254 -205 286 -168 q 186 -255 223 -243 q 107 -268 150 -268 q 15 -240 46 -268 q -15 -169 -15 -212 q 1 -123 -15 -141 q 44 -105 18 -105 q 77 -115 63 -105 q 91 -141 91 -124 q 97 -185 92 -167 q 123 -204 101 -204 q 160 -180 144 -204 q 186 -90 176 -156 q 201 96 196 -23 q 205 411 206 216 l 110 411 "},"Î":{"x_min":73.09375,"x_max":409.28125,"ha":481,"o":"m 162 677 q 150 755 162 726 q 117 789 138 784 l 73 796 l 73 875 l 407 875 l 407 796 l 363 789 q 330 755 342 784 q 319 677 319 726 l 319 197 q 328 119 319 148 q 364 85 338 91 l 409 79 l 409 0 l 73 0 l 73 79 l 117 85 q 152 119 142 91 q 162 197 162 148 l 162 677 m 243 1155 l 389 1051 l 368 1000 l 242 1031 l 117 992 l 95 1044 l 243 1155 "},"e":{"x_min":73.09375,"x_max":620,"ha":715,"o":"m 319 412 l 319 184 q 338 116 319 143 q 410 89 357 89 q 470 101 447 89 q 507 135 494 114 q 526 185 520 157 q 532 245 532 214 l 532 314 l 620 314 l 620 0 l 73 0 l 73 79 l 117 85 q 152 119 142 90 q 162 197 162 148 l 162 677 q 150 755 162 726 q 117 789 138 784 l 73 796 l 73 875 l 620 875 l 620 572 l 532 572 l 532 630 q 495 749 532 709 q 410 789 459 789 q 338 764 357 789 q 319 691 319 740 l 319 511 l 456 511 l 456 412 l 319 412 "},"Ã":{"x_min":65.28125,"x_max":757,"ha":831,"o":"m 445 407 l 400 619 l 394 619 l 336 407 l 445 407 m 304 283 l 293 241 q 288 138 277 178 q 323 88 300 97 l 359 79 l 359 0 l 65 0 l 65 79 l 95 88 q 120 104 108 93 q 143 137 131 115 q 165 195 154 159 q 193 284 177 230 l 352 875 l 481 875 l 645 240 q 682 134 665 166 q 718 94 700 101 l 757 79 l 757 0 l 415 0 l 415 79 l 451 88 q 488 129 479 97 q 481 241 498 162 l 472 283 l 304 283 m 566 1129 q 538 1020 566 1051 q 467 990 510 990 q 394 1019 419 990 q 351 1043 370 1043 q 330 1033 338 1043 q 322 996 322 1023 l 264 996 q 293 1098 264 1067 q 362 1130 322 1130 q 405 1123 387 1130 q 433 1105 424 1116 q 456 1088 444 1095 q 479 1080 468 1080 q 499 1091 489 1080 q 509 1129 509 1102 l 566 1129 "},"J":{"x_min":74,"x_max":642.671875,"ha":711,"o":"m 551 290 q 541 177 551 232 q 505 82 531 123 q 433 16 478 40 q 316 -8 387 -8 q 207 10 252 -8 q 131 62 161 29 q 87 140 101 96 q 74 236 74 184 q 101 342 74 307 q 172 378 128 378 q 233 359 207 378 q 259 308 259 340 q 252 269 259 287 q 231 234 246 251 q 207 204 217 219 q 198 169 198 189 q 224 125 198 147 q 291 103 251 103 q 334 113 315 103 q 366 150 353 123 q 387 223 379 177 q 395 341 395 269 l 395 677 q 383 756 395 727 q 350 790 371 785 l 306 797 l 306 876 l 642 876 l 642 797 l 598 790 q 563 756 576 785 q 551 677 551 727 l 551 290 "},"»":{"x_min":85,"x_max":486,"ha":529,"o":"m 351 429 l 283 607 l 358 607 l 486 429 l 358 250 l 283 250 l 351 429 m 153 429 l 85 607 l 160 607 l 287 429 l 160 250 l 85 250 l 153 429 "},"©":{"x_min":85,"x_max":908,"ha":982,"o":"m 711 470 l 593 470 q 586 541 593 504 q 565 608 580 577 q 528 658 551 638 q 470 679 505 677 q 438 669 451 679 q 417 643 425 659 q 406 607 409 627 q 403 567 403 587 l 403 355 q 426 255 403 290 q 490 221 450 219 q 567 249 541 222 q 593 354 593 276 l 711 354 q 696 280 711 318 q 652 213 681 243 q 579 164 623 183 q 473 146 534 146 q 361 168 406 146 q 287 225 315 190 q 247 302 259 259 q 236 387 236 345 l 236 540 q 251 616 236 576 q 295 690 266 656 q 366 746 324 724 q 461 769 408 769 q 556 749 511 769 q 584 734 570 742 q 609 725 598 725 q 624 728 617 725 q 631 759 631 731 l 711 760 l 711 470 m 497 847 q 347 816 416 847 q 225 733 277 785 q 143 611 173 681 q 114 462 114 541 q 143 310 114 380 q 225 187 173 240 q 347 104 277 134 q 497 75 416 75 q 647 104 577 75 q 769 187 717 134 q 852 310 821 240 q 883 462 883 380 q 852 611 883 541 q 769 733 821 681 q 647 816 717 785 q 497 847 577 847 m 497 872 q 658 839 583 872 q 788 751 733 806 q 876 620 844 695 q 908 462 908 545 q 876 300 908 376 q 788 168 844 224 q 658 79 733 112 q 497 47 583 47 q 337 79 412 47 q 206 168 262 112 q 117 300 150 224 q 85 462 85 376 q 117 620 85 545 q 206 751 150 695 q 337 839 262 806 q 497 872 412 872 "},"˘":{"x_min":46,"x_max":337,"ha":406,"o":"m 122 1150 q 140 1095 122 1115 q 194 1075 159 1075 q 263 1145 258 1075 l 337 1145 q 300 1026 337 1068 q 194 985 263 985 q 82 1027 119 985 q 46 1150 46 1070 l 122 1150 "},"ò":{"x_min":102.609375,"x_max":679,"ha":782,"o":"m 293 271 q 296 199 293 233 q 311 137 299 164 q 340 96 322 111 q 391 81 359 81 q 441 97 422 81 q 471 140 460 114 q 485 201 481 167 q 490 271 490 235 l 490 640 q 485 697 490 669 q 471 747 481 725 q 441 781 460 768 q 391 795 422 795 q 340 781 359 795 q 311 747 322 768 q 296 697 299 725 q 293 640 293 669 l 293 271 m 679 315 q 658 191 679 250 q 601 87 638 132 q 510 17 563 43 q 391 -8 456 -8 q 272 14 326 -8 q 181 78 219 36 q 122 177 142 119 q 102 305 102 235 l 104 571 q 124 689 104 632 q 183 789 145 746 q 273 859 220 833 q 391 885 326 885 q 509 860 456 885 q 599 793 562 836 q 658 693 637 750 q 679 571 679 636 l 679 315 m 477 1000 l 269 1026 q 228 1048 240 1030 q 224 1091 217 1065 q 255 1127 230 1121 q 301 1123 279 1133 l 489 1046 l 477 1000 "},"«":{"x_min":69,"x_max":454,"ha":500,"o":"m 203 429 l 273 250 l 198 250 l 69 429 l 198 607 l 273 606 l 203 429 m 385 430 l 454 250 l 379 250 l 251 430 l 379 608 l 454 608 l 385 430 "},"D":{"x_min":74.09375,"x_max":757,"ha":839,"o":"m 367 776 q 326 747 333 776 q 320 670 320 719 l 320 197 q 362 100 320 100 l 426 100 q 490 134 463 100 q 535 219 517 168 q 560 330 552 270 q 569 441 569 390 q 560 611 569 545 q 537 713 552 677 q 503 762 523 749 q 461 776 483 776 l 367 776 m 163 677 q 151 755 163 726 q 118 789 139 784 l 74 796 l 74 875 l 465 875 q 582 850 529 875 q 675 772 636 826 q 735 634 713 719 q 757 427 757 548 q 731 261 757 338 q 660 125 705 183 q 552 33 615 66 q 416 0 490 0 l 74 0 l 74 79 l 118 85 q 153 119 143 91 q 163 197 163 148 l 163 677 "},"∙":{"x_min":111,"x_max":268,"ha":354,"o":"m 188 545 q 244 517 220 545 q 268 451 268 489 q 244 386 268 412 q 188 360 220 360 q 133 386 156 360 q 111 451 111 412 q 133 517 111 489 q 188 545 156 545 "},"ł":{"x_min":73.09375,"x_max":660,"ha":756,"o":"m 117 85 q 152 119 142 91 q 162 197 162 148 l 162 359 l 73 323 l 73 411 l 162 448 l 162 677 q 150 755 162 726 q 117 789 138 784 l 73 796 l 73 875 l 407 875 l 407 796 l 363 789 q 330 755 342 784 q 319 677 319 726 l 319 516 l 472 577 l 472 476 l 319 419 l 319 233 q 323 180 319 204 q 341 141 328 157 q 378 118 355 126 q 439 110 402 110 q 542 134 513 110 q 572 208 572 158 l 572 285 l 660 285 l 660 0 l 73 0 l 73 79 l 117 85 "},"ÿ":{"x_min":75,"x_max":741.84375,"ha":811,"o":"m 75 875 l 409 875 l 409 796 l 366 789 q 337 768 343 784 q 345 727 331 751 l 434 566 l 521 723 q 532 766 536 748 q 508 789 527 784 l 465 796 l 465 875 l 741 875 l 741 796 l 694 789 q 671 771 680 786 q 650 737 661 757 l 496 458 l 496 197 q 505 119 496 148 q 541 85 515 91 l 586 79 l 586 0 l 249 0 l 249 79 l 294 85 q 330 119 320 91 q 340 197 340 148 l 340 398 l 183 697 q 148 762 163 737 q 111 790 133 787 l 75 796 l 75 875 m 523 1107 q 563 1091 547 1107 q 579 1048 579 1076 q 563 1005 579 1020 q 523 990 547 990 q 483 1005 499 990 q 468 1048 468 1020 q 483 1091 468 1076 q 523 1107 499 1107 m 306 1107 q 345 1091 329 1107 q 362 1048 362 1076 q 345 1005 362 1020 q 306 990 329 990 q 267 1005 282 990 q 252 1048 252 1020 q 267 1091 252 1076 q 306 1107 282 1107 "},"Ł":{"x_min":73.09375,"x_max":660,"ha":756,"o":"m 117 85 q 152 119 142 91 q 162 197 162 148 l 162 359 l 73 323 l 73 411 l 162 448 l 162 677 q 150 755 162 726 q 117 789 138 784 l 73 796 l 73 875 l 407 875 l 407 796 l 363 789 q 330 755 342 784 q 319 677 319 726 l 319 516 l 472 577 l 472 476 l 319 419 l 319 233 q 323 180 319 204 q 341 141 328 157 q 378 118 355 126 q 439 110 402 110 q 542 134 513 110 q 572 208 572 158 l 572 285 l 660 285 l 660 0 l 73 0 l 73 79 l 117 85 "},"í":{"x_min":73.09375,"x_max":409.671875,"ha":481,"o":"m 162 677 q 150 755 162 726 q 117 789 138 784 l 73 796 l 73 875 l 407 875 l 407 796 l 363 789 q 330 755 342 784 q 319 677 319 726 l 319 197 q 328 119 319 148 q 364 85 338 91 l 409 79 l 409 0 l 73 0 l 73 79 l 117 85 q 152 119 142 91 q 162 197 162 148 l 162 677 m 154 979 l 143 1026 l 331 1114 q 376 1118 352 1122 q 407 1084 400 1114 q 402 1039 413 1058 q 362 1016 391 1020 l 154 979 "},"ˆ":{"x_min":42,"x_max":336,"ha":404,"o":"m 190 1141 l 336 1037 l 315 986 l 189 1017 l 64 978 l 42 1030 l 190 1141 "},"w":{"x_min":75,"x_max":975.078125,"ha":1050,"o":"m 975 875 l 975 796 l 932 789 q 888 745 902 784 q 861 636 873 707 l 748 0 l 636 0 l 525 523 l 445 0 l 333 0 l 176 697 q 154 759 168 733 q 118 789 140 786 l 75 796 l 75 875 l 394 875 l 394 796 l 350 789 q 326 766 327 786 q 336 701 325 745 l 413 355 l 491 875 l 611 875 l 720 352 l 780 690 q 786 761 790 739 q 751 789 782 784 l 708 796 l 708 875 l 975 875 "},"$":{"x_min":100,"x_max":671,"ha":757,"o":"m 418 121 q 481 139 452 121 q 510 202 510 158 q 418 309 510 262 l 418 121 m 328 755 q 302 749 316 755 q 275 732 287 743 q 253 702 262 720 q 245 660 245 685 q 267 593 245 620 q 328 548 290 566 l 328 755 m 418 516 q 506 479 461 499 q 588 428 551 459 q 648 353 625 398 q 671 241 671 308 q 648 138 671 181 q 588 68 625 95 q 506 30 551 41 q 418 21 461 18 l 418 -62 l 328 -62 l 328 21 q 211 64 255 39 q 141 120 166 90 q 108 180 116 150 q 100 239 100 211 q 123 318 100 286 q 194 351 147 351 q 253 330 229 351 q 277 282 277 308 q 250 219 277 239 q 233 205 240 212 q 227 189 227 197 q 255 151 227 175 q 328 121 283 127 l 328 341 q 219 409 262 377 q 150 474 176 441 q 114 542 125 506 q 103 620 103 577 q 122 708 103 666 q 173 781 141 749 q 245 831 204 812 q 328 854 286 851 l 328 929 l 418 929 l 418 853 q 513 830 469 849 q 590 784 558 812 q 639 720 621 756 q 658 646 658 685 q 651 602 658 624 q 633 562 645 580 q 600 534 620 545 q 552 523 580 523 q 491 545 516 523 q 466 602 466 568 q 481 639 466 625 q 510 660 496 653 q 533 693 533 670 q 523 710 533 700 q 497 730 513 720 q 460 746 481 739 q 418 755 440 753 l 418 516 "},"Ì":{"x_min":73.09375,"x_max":409.28125,"ha":481,"o":"m 162 677 q 150 755 162 726 q 117 789 138 784 l 73 796 l 73 875 l 407 875 l 407 796 l 363 789 q 330 755 342 784 q 319 677 319 726 l 319 197 q 328 119 319 148 q 364 85 338 91 l 409 79 l 409 0 l 73 0 l 73 79 l 117 85 q 152 119 142 91 q 162 197 162 148 l 162 677 m 339 986 l 131 1012 q 90 1034 102 1016 q 86 1077 79 1051 q 117 1113 92 1107 q 163 1109 141 1119 l 351 1032 l 339 986 "},"µ":{"x_min":57.046875,"x_max":728.9375,"ha":750,"o":"m 289 636 l 289 307 q 311 158 289 205 q 398 112 333 112 q 472 160 445 112 q 501 305 499 209 l 501 466 q 457 546 501 539 l 417 551 l 417 636 l 647 636 l 647 241 q 649 164 647 195 q 660 113 652 133 q 685 86 669 94 q 728 76 701 77 l 728 0 l 501 0 l 501 59 q 439 8 477 27 q 361 -10 401 -10 q 288 4 323 -10 q 225 56 252 19 q 230 15 225 35 q 241 -26 235 -4 q 253 -74 247 -49 q 259 -129 259 -100 q 250 -171 259 -153 q 229 -201 242 -189 q 203 -219 217 -212 q 176 -225 189 -225 q 123 -202 151 -225 q 96 -129 96 -179 q 102 -82 96 -104 q 117 -27 109 -60 q 132 55 125 5 q 139 185 139 105 l 140 466 q 97 547 140 540 l 57 551 l 57 636 l 289 636 "},"Ç":{"x_min":111,"x_max":694,"ha":804,"o":"m 345 -254 q 402 -242 381 -252 q 423 -209 423 -233 q 411 -183 423 -194 q 375 -169 399 -172 q 336 -151 348 -166 q 325 -116 325 -135 q 347 -69 325 -88 q 403 -51 368 -51 q 475 -78 446 -51 q 504 -165 504 -106 q 491 -217 504 -194 q 457 -258 478 -241 q 407 -286 435 -276 q 345 -296 378 -296 l 345 -254 m 694 467 l 551 467 q 542 576 551 518 q 515 682 534 633 q 467 763 497 731 q 398 795 438 795 q 347 781 366 795 q 317 747 328 768 q 303 697 307 725 q 299 640 299 669 l 299 271 q 328 135 299 189 q 418 81 357 81 q 515 127 480 81 q 551 289 551 174 l 694 289 q 678 180 694 233 q 629 85 663 126 q 542 17 595 43 q 413 -8 488 -8 q 274 22 331 -8 q 180 102 216 53 q 127 213 144 151 q 111 339 111 275 l 111 569 q 131 680 111 623 q 188 782 151 736 q 279 856 226 828 q 398 885 333 885 q 510 858 458 885 q 546 841 527 848 q 577 834 564 834 q 594 842 588 834 q 599 879 599 851 l 694 879 l 694 467 "},"’":{"x_min":91.21875,"x_max":265,"ha":314,"o":"m 106 647 q 163 677 139 656 q 194 740 187 699 q 156 734 178 734 q 109 752 128 734 q 91 807 91 771 q 112 872 91 846 q 169 899 132 899 q 241 866 217 899 q 265 782 265 833 q 219 648 265 699 q 106 588 174 597 l 106 647 "},"-":{"x_min":91,"x_max":354,"ha":389,"o":"m 91 474 l 354 474 l 354 368 l 91 368 l 91 474 "},"Q":{"x_min":104,"x_max":831,"ha":921,"o":"m 391 81 q 465 107 440 81 q 490 164 490 133 q 481 200 490 182 q 458 232 473 218 q 424 254 444 246 q 384 263 405 263 q 313 235 334 263 q 293 167 293 207 q 320 103 293 126 q 391 81 347 81 m 293 321 q 333 351 309 343 q 385 360 356 360 q 441 348 413 360 q 490 308 469 337 l 490 640 q 485 697 490 669 q 471 747 481 725 q 441 781 460 768 q 391 795 422 795 q 340 781 359 795 q 311 747 322 768 q 296 697 299 725 q 293 640 293 669 l 293 321 m 104 571 q 124 679 104 623 q 183 780 145 735 q 273 855 220 826 q 391 885 326 885 q 509 856 456 885 q 599 782 562 828 q 658 680 637 736 q 679 571 679 625 l 679 339 q 672 248 679 289 q 662 193 666 208 q 692 155 676 172 q 733 139 708 139 q 768 166 756 139 q 782 234 780 194 q 819 194 808 227 q 831 120 831 161 q 790 9 831 47 q 687 -29 750 -29 q 620 -10 655 -29 q 560 47 584 8 q 495 7 542 23 q 391 -8 448 -8 q 260 22 315 -8 q 170 102 205 53 q 119 213 135 151 q 104 339 104 275 l 104 571 "},"M":{"x_min":73.09375,"x_max":858.296875,"ha":931,"o":"m 251 197 q 260 120 251 148 q 296 86 270 93 l 327 79 l 327 0 l 73 0 l 73 79 l 117 85 q 152 119 142 91 q 162 197 162 148 l 162 677 q 150 755 162 726 q 117 789 138 784 l 73 796 l 73 875 l 384 875 l 470 448 l 552 875 l 856 875 l 856 796 l 812 789 q 779 755 791 784 q 768 677 768 726 l 768 197 q 777 119 768 148 q 813 85 787 91 l 858 79 l 858 0 l 535 0 l 535 79 l 566 86 q 602 120 592 93 q 612 197 612 148 l 612 677 l 609 677 l 477 0 l 387 0 l 254 677 l 251 677 l 251 197 "},"C":{"x_min":104,"x_max":687,"ha":790,"o":"m 544 467 q 535 576 544 518 q 508 682 527 633 q 460 763 490 731 q 391 795 431 795 q 340 781 359 795 q 310 747 321 768 q 296 697 300 725 q 292 640 292 669 l 292 271 q 321 135 292 189 q 411 81 350 81 q 508 127 473 81 q 544 289 544 174 l 687 289 q 671 180 687 233 q 622 85 656 126 q 535 17 588 43 q 406 -8 481 -8 q 267 22 324 -8 q 173 102 209 53 q 120 213 137 151 q 104 339 104 275 l 104 569 q 124 680 104 623 q 181 782 144 736 q 272 856 219 828 q 391 885 326 885 q 503 858 451 885 q 539 841 520 848 q 570 834 557 834 q 587 842 581 834 q 592 879 592 851 l 687 879 l 687 467 l 544 467 "},"œ":{"x_min":103,"x_max":946,"ha":1042,"o":"m 490 643 q 485 699 490 672 q 471 745 481 726 q 440 777 460 765 q 390 789 420 789 q 339 777 358 789 q 309 745 320 765 q 295 699 299 726 q 291 643 291 672 l 291 273 q 295 210 291 244 q 309 149 299 177 q 339 101 320 120 q 390 83 358 83 q 440 92 420 83 q 471 124 460 102 q 485 182 481 145 q 490 273 490 219 l 490 643 m 387 0 q 257 25 311 0 q 168 95 203 51 q 118 197 134 138 q 103 319 103 255 l 103 573 q 121 689 103 634 q 173 785 139 744 q 259 850 208 826 q 375 875 309 875 l 946 875 l 946 572 l 858 572 l 858 630 q 821 749 858 709 q 737 789 785 789 q 665 764 684 789 q 646 691 646 740 l 646 511 l 761 511 l 761 412 l 646 412 l 646 184 q 665 115 646 142 q 737 88 684 88 q 797 101 773 88 q 833 135 820 113 q 852 185 846 156 q 858 245 858 213 l 858 313 l 946 313 l 946 0 l 387 0 "},"!":{"x_min":100,"x_max":321,"ha":419,"o":"m 208 183 q 264 156 240 183 q 289 90 289 130 q 264 24 289 52 q 208 -3 240 -3 q 152 24 176 -3 q 129 90 129 52 q 152 156 129 130 q 208 183 176 183 m 159 247 q 147 390 156 319 q 127 522 137 461 q 108 632 116 583 q 100 712 100 681 q 105 772 100 743 q 124 824 111 801 q 158 861 137 847 q 209 875 179 875 q 261 861 240 875 q 295 824 282 847 q 314 772 308 801 q 321 712 321 743 q 312 632 321 681 q 293 522 304 583 q 273 390 283 461 q 261 247 264 319 l 159 247 "},"ç":{"x_min":111,"x_max":694,"ha":804,"o":"m 345 -254 q 402 -242 381 -252 q 423 -209 423 -233 q 411 -183 423 -194 q 375 -169 399 -172 q 336 -151 348 -166 q 325 -116 325 -135 q 347 -69 325 -88 q 403 -51 368 -51 q 475 -78 446 -51 q 504 -165 504 -106 q 491 -217 504 -194 q 457 -258 478 -241 q 407 -286 435 -276 q 345 -296 378 -296 l 345 -254 m 694 467 l 551 467 q 542 576 551 518 q 515 682 534 633 q 467 763 497 731 q 398 795 438 795 q 347 781 366 795 q 317 747 328 768 q 303 697 307 725 q 299 640 299 669 l 299 271 q 328 135 299 189 q 418 81 357 81 q 515 127 480 81 q 551 289 551 174 l 694 289 q 678 180 694 233 q 629 85 663 126 q 542 17 595 43 q 413 -8 488 -8 q 274 22 331 -8 q 180 102 216 53 q 127 213 144 151 q 111 339 111 275 l 111 569 q 131 680 111 623 q 188 782 151 736 q 279 856 226 828 q 398 885 333 885 q 510 858 458 885 q 546 841 527 848 q 577 834 564 834 q 594 842 588 834 q 599 879 599 851 l 694 879 l 694 467 "},"È":{"x_min":73.09375,"x_max":620,"ha":715,"o":"m 319 412 l 319 184 q 338 116 319 143 q 410 89 357 89 q 470 101 447 89 q 507 135 494 114 q 526 185 520 157 q 532 245 532 214 l 532 314 l 620 314 l 620 0 l 73 0 l 73 79 l 117 85 q 152 119 142 90 q 162 197 162 148 l 162 677 q 150 755 162 726 q 117 789 138 784 l 73 796 l 73 875 l 620 875 l 620 572 l 532 572 l 532 630 q 495 749 532 709 q 410 789 459 789 q 338 764 357 789 q 319 691 319 740 l 319 511 l 456 511 l 456 412 l 319 412 m 450 993 l 242 1019 q 201 1041 213 1023 q 197 1084 190 1058 q 228 1120 203 1114 q 274 1116 252 1126 l 462 1039 l 450 993 "},"ﬁ":{"x_min":73.09375,"x_max":1153.296875,"ha":1224,"o":"m 906 677 q 894 755 906 726 q 861 789 882 784 l 817 796 l 817 875 l 1151 875 l 1151 796 l 1107 789 q 1074 755 1086 784 q 1063 677 1063 726 l 1063 197 q 1072 119 1063 148 q 1108 85 1082 91 l 1153 79 l 1153 0 l 817 0 l 817 79 l 861 85 q 896 119 886 91 q 906 197 906 148 l 906 677 m 558 630 q 544 700 558 671 q 508 750 530 730 q 461 779 487 769 q 410 789 435 789 q 338 761 357 789 q 319 691 319 733 l 319 511 l 456 511 l 456 412 l 319 412 l 319 196 q 330 123 319 148 q 378 88 342 98 l 421 79 l 421 0 l 73 0 l 73 79 l 117 85 q 152 119 142 91 q 162 197 162 148 l 162 677 q 150 755 162 726 q 117 789 138 784 l 73 796 l 73 875 l 661 875 l 661 572 l 558 572 l 558 630 "},"{":{"x_min":72,"x_max":421,"ha":494,"o":"m 421 -89 q 316 -78 362 -89 q 239 -38 270 -68 q 191 45 208 -8 q 175 186 175 98 q 167 278 175 241 q 148 337 160 315 q 116 368 135 359 q 72 378 97 378 l 72 466 q 115 475 97 466 q 147 506 134 484 q 165 565 159 528 q 172 658 172 603 q 187 800 172 744 q 233 888 202 855 q 309 933 263 921 q 417 946 355 946 l 417 877 q 336 831 358 877 q 314 678 315 785 q 309 579 314 621 q 294 508 304 538 q 269 458 284 478 q 231 426 254 439 q 273 392 258 413 q 296 342 289 372 q 307 269 304 311 q 313 169 310 226 q 339 31 315 85 q 421 -22 362 -22 l 421 -89 "},"X":{"x_min":75,"x_max":755.6875,"ha":824,"o":"m 411 875 l 411 796 l 366 789 q 338 768 344 786 q 347 727 333 751 l 436 566 l 522 723 q 533 767 537 748 q 509 789 529 786 l 465 796 l 465 875 l 741 875 l 741 796 l 694 789 q 672 772 682 787 q 651 737 662 757 l 497 458 l 677 130 q 695 101 686 115 q 716 85 705 88 l 755 79 l 755 0 l 412 0 l 412 79 l 457 85 q 483 105 479 88 q 473 147 487 122 l 401 281 l 323 141 q 313 102 308 117 q 339 83 319 87 l 367 79 l 367 0 l 95 0 l 95 79 l 140 88 q 177 111 157 92 q 214 160 197 130 l 342 398 l 183 697 q 151 757 168 729 q 120 789 135 786 l 75 796 l 75 875 l 411 875 "},"ô":{"x_min":102.609375,"x_max":679,"ha":782,"o":"m 293 271 q 296 199 293 233 q 311 137 299 164 q 340 96 322 111 q 391 81 359 81 q 441 97 422 81 q 471 140 460 114 q 485 201 481 167 q 490 271 490 235 l 490 640 q 485 697 490 669 q 471 747 481 725 q 441 781 460 768 q 391 795 422 795 q 340 781 359 795 q 311 747 322 768 q 296 697 299 725 q 293 640 293 669 l 293 271 m 679 315 q 658 191 679 250 q 601 87 638 132 q 510 17 563 43 q 391 -8 456 -8 q 272 14 326 -8 q 181 78 219 36 q 122 177 142 119 q 102 305 102 235 l 104 571 q 124 689 104 632 q 183 789 145 746 q 273 859 220 833 q 391 885 326 885 q 509 860 456 885 q 599 793 562 836 q 658 693 637 750 q 679 571 679 636 l 679 315 m 393 1141 l 539 1037 l 518 986 l 392 1017 l 267 978 l 245 1030 l 393 1141 "},"Ê":{"x_min":73.09375,"x_max":620,"ha":715,"o":"m 319 412 l 319 184 q 338 116 319 143 q 410 89 357 89 q 470 101 447 89 q 507 135 494 114 q 526 185 520 157 q 532 245 532 214 l 532 314 l 620 314 l 620 0 l 73 0 l 73 79 l 117 85 q 152 119 142 90 q 162 197 162 148 l 162 677 q 150 755 162 726 q 117 789 138 784 l 73 796 l 73 875 l 620 875 l 620 572 l 532 572 l 532 630 q 495 749 532 709 q 410 789 459 789 q 338 764 357 789 q 319 691 319 740 l 319 511 l 456 511 l 456 412 l 319 412 m 373 1155 l 519 1051 l 498 1000 l 372 1031 l 247 992 l 225 1044 l 373 1155 "},")":{"x_min":77.828125,"x_max":331,"ha":432,"o":"m 159 957 q 227 856 195 909 q 281 741 258 804 q 317 602 304 677 q 331 433 331 526 q 317 265 331 341 q 281 125 304 188 q 228 11 258 62 q 165 -82 198 -40 l 86 -82 q 122 15 105 -40 q 153 138 140 72 q 174 279 166 205 q 182 431 182 354 q 152 725 182 588 q 77 957 123 862 l 159 957 "},"Å":{"x_min":65.28125,"x_max":757,"ha":831,"o":"m 445 407 l 400 619 l 394 619 l 336 407 l 445 407 m 304 283 l 293 241 q 288 138 277 178 q 323 88 300 97 l 359 79 l 359 0 l 65 0 l 65 79 l 95 88 q 120 104 108 93 q 143 137 131 115 q 165 195 154 159 q 193 284 177 230 l 352 875 l 481 875 l 645 240 q 682 134 665 166 q 718 94 700 101 l 757 79 l 757 0 l 415 0 l 415 79 l 451 88 q 488 129 479 97 q 481 241 498 162 l 472 283 l 304 283 m 413 1133 q 368 1116 385 1133 q 351 1071 351 1099 q 367 1029 351 1046 q 413 1012 384 1012 q 459 1028 441 1012 q 478 1074 478 1045 q 460 1117 478 1101 q 413 1133 443 1133 m 413 1157 q 482 1134 458 1157 q 507 1070 507 1111 q 480 1011 507 1037 q 413 986 454 986 q 347 1009 373 986 q 322 1073 322 1033 q 347 1133 322 1109 q 413 1157 373 1157 "},"ø":{"x_min":66.5,"x_max":723.453125,"ha":782,"o":"m 293 219 q 297 171 293 196 q 314 126 302 146 q 345 93 326 105 q 391 81 363 81 q 441 98 422 81 q 471 142 460 115 q 485 203 481 169 q 490 271 490 237 l 490 523 l 293 219 m 490 651 q 485 702 490 676 q 471 748 481 728 q 441 781 460 768 q 391 795 422 795 q 340 781 359 795 q 311 747 322 768 q 296 697 299 725 q 293 640 293 669 l 293 344 l 490 651 m 147 125 q 111 220 119 172 q 104 325 104 268 l 104 571 q 124 689 104 633 q 183 789 145 746 q 273 859 220 833 q 391 885 326 885 q 503 862 452 885 q 587 804 554 840 l 642 886 l 723 886 l 634 744 q 665 670 651 716 q 679 576 679 625 l 679 326 q 659 196 679 257 q 602 90 640 136 q 511 18 565 44 q 391 -8 458 -8 q 273 13 322 -8 q 194 66 224 34 l 151 0 l 66 0 l 147 125 "},"â":{"x_min":65.28125,"x_max":757,"ha":831,"o":"m 445 407 l 400 619 l 394 619 l 336 407 l 445 407 m 304 283 l 293 241 q 288 138 277 178 q 323 88 300 97 l 359 79 l 359 0 l 65 0 l 65 79 l 95 88 q 120 104 108 93 q 143 137 131 115 q 165 195 154 159 q 193 284 177 230 l 352 875 l 481 875 l 645 240 q 682 134 665 166 q 718 94 700 101 l 757 79 l 757 0 l 415 0 l 415 79 l 451 88 q 488 129 479 97 q 481 241 498 162 l 472 283 l 304 283 m 432 1155 l 578 1051 l 557 1000 l 431 1031 l 306 992 l 284 1044 l 432 1155 "},"}":{"x_min":82,"x_max":424.609375,"ha":494,"o":"m 85 946 q 188 932 143 946 q 263 886 233 919 q 310 798 294 854 q 326 655 326 741 q 331 563 326 600 q 348 504 337 526 q 378 473 359 482 q 424 464 396 464 l 424 379 q 379 371 399 379 q 345 342 359 363 q 323 285 331 322 q 316 194 316 249 q 301 52 316 106 q 257 -32 286 -1 q 184 -73 228 -62 q 82 -85 140 -85 l 82 -25 q 159 27 138 -25 q 184 165 181 79 q 188 264 185 222 q 202 336 192 306 q 229 387 211 366 q 277 420 246 408 q 230 453 248 433 q 203 502 213 473 q 190 573 193 531 q 187 672 187 615 q 164 818 187 765 q 85 872 142 872 l 85 946 "},"Ä":{"x_min":65.28125,"x_max":757,"ha":831,"o":"m 445 407 l 400 619 l 394 619 l 336 407 l 445 407 m 304 283 l 293 241 q 288 138 277 178 q 323 88 300 97 l 359 79 l 359 0 l 65 0 l 65 79 l 95 88 q 120 104 108 93 q 143 137 131 115 q 165 195 154 159 q 193 284 177 230 l 352 875 l 481 875 l 645 240 q 682 134 665 166 q 718 94 700 101 l 757 79 l 757 0 l 415 0 l 415 79 l 451 88 q 488 129 479 97 q 481 241 498 162 l 472 283 l 304 283 m 519 1093 q 559 1077 543 1093 q 575 1034 575 1062 q 559 991 575 1006 q 519 976 543 976 q 479 991 495 976 q 464 1034 464 1006 q 479 1077 464 1062 q 519 1093 495 1093 m 302 1093 q 341 1077 325 1093 q 358 1034 358 1062 q 341 991 358 1006 q 302 976 325 976 q 263 991 278 976 q 248 1034 248 1006 q 263 1077 248 1062 q 302 1093 278 1093 "},"¸":{"x_min":41.15625,"x_max":197,"ha":267,"o":"m 49 -301 q 69 -299 59 -301 q 89 -295 80 -298 q 105 -287 99 -292 q 112 -271 112 -281 q 102 -253 112 -256 q 78 -246 93 -249 q 53 -235 66 -244 q 41 -206 41 -226 q 58 -166 41 -182 q 113 -149 75 -149 q 175 -170 153 -149 q 197 -231 197 -191 q 154 -308 197 -282 q 49 -336 112 -333 l 49 -301 "},"a":{"x_min":65.28125,"x_max":757,"ha":831,"o":"m 445 407 l 400 619 l 394 619 l 336 407 l 445 407 m 304 283 l 293 241 q 288 138 277 178 q 323 88 300 97 l 359 79 l 359 0 l 65 0 l 65 79 l 95 88 q 120 104 108 93 q 143 137 131 115 q 165 195 154 159 q 193 284 177 230 l 352 875 l 481 875 l 645 240 q 682 134 665 166 q 718 94 700 101 l 757 79 l 757 0 l 415 0 l 415 79 l 451 88 q 488 129 479 97 q 481 241 498 162 l 472 283 l 304 283 "},"—":{"x_min":76.390625,"x_max":1047.3125,"ha":1181,"o":"m 76 474 l 1047 474 l 1047 368 l 76 368 l 76 474 "},"N":{"x_min":74.09375,"x_max":746.890625,"ha":821,"o":"m 252 197 q 261 120 252 148 q 297 86 271 93 l 328 79 l 328 0 l 74 0 l 74 79 l 118 85 q 153 119 143 91 q 163 197 163 148 l 163 677 q 151 755 163 726 q 118 789 139 784 l 74 796 l 74 875 l 384 875 l 568 376 l 569 376 l 569 677 q 557 755 569 726 q 524 789 545 784 l 480 796 l 480 875 l 746 875 l 746 796 l 703 789 q 669 755 681 784 q 658 677 658 726 l 658 0 l 497 0 l 255 677 l 252 677 l 252 197 "},"˚":{"x_min":36,"x_max":221,"ha":300,"o":"m 127 1133 q 82 1116 99 1133 q 65 1071 65 1099 q 81 1029 65 1046 q 127 1012 98 1012 q 173 1028 155 1012 q 192 1074 192 1045 q 174 1117 192 1101 q 127 1133 157 1133 m 127 1157 q 196 1134 172 1157 q 221 1070 221 1111 q 194 1011 221 1037 q 127 986 168 986 q 61 1009 87 986 q 36 1073 36 1033 q 61 1133 36 1109 q 127 1157 87 1157 "},"ú":{"x_min":71.109375,"x_max":747.28125,"ha":817,"o":"m 71 875 l 405 875 l 405 796 l 361 789 q 328 755 340 784 q 317 677 317 726 l 317 382 q 321 243 317 300 q 339 150 325 186 q 378 97 353 114 q 445 81 404 81 q 494 90 472 81 q 534 125 517 100 q 560 192 551 150 q 569 300 569 235 l 569 677 q 559 751 569 718 q 521 789 550 784 l 478 796 l 478 875 l 747 875 l 747 796 l 702 789 q 666 751 675 784 q 657 677 657 718 l 657 323 q 642 161 657 225 q 600 60 627 97 q 531 7 572 22 q 436 -8 490 -8 q 300 13 354 -8 q 216 79 247 35 q 172 190 184 123 q 160 348 160 257 l 160 677 q 148 755 160 726 q 115 789 136 784 l 71 796 l 71 875 m 336 979 l 325 1026 l 513 1114 q 558 1118 534 1122 q 589 1084 582 1114 q 584 1039 595 1058 q 544 1016 573 1020 l 336 979 "},"2":{"x_min":106,"x_max":636,"ha":731,"o":"m 110 0 l 110 61 q 123 177 110 127 q 160 266 137 227 q 213 332 183 304 q 273 386 243 361 q 404 516 362 455 q 447 654 447 576 q 440 706 447 681 q 420 750 434 731 q 386 782 406 769 q 336 795 365 795 q 273 783 298 795 q 232 754 247 771 q 209 719 216 738 q 203 689 203 701 q 240 647 203 653 q 284 626 266 644 q 301 572 301 608 q 275 510 301 538 q 208 482 248 482 q 129 531 153 482 q 106 653 106 579 q 127 750 106 707 q 185 823 148 793 q 269 869 222 853 q 368 885 316 885 q 459 870 413 885 q 542 825 505 855 q 603 751 580 796 q 626 647 626 707 q 606 522 626 573 q 558 434 587 471 q 493 375 528 398 q 427 339 458 352 q 372 310 402 326 q 314 273 343 294 q 261 226 286 252 q 219 165 236 200 l 222 161 q 282 197 253 186 q 347 209 312 209 q 387 204 370 209 q 420 193 404 200 q 463 178 443 185 q 506 171 483 171 q 546 207 538 171 q 554 296 554 243 l 636 296 l 636 215 q 466 -8 636 -8 q 405 1 431 -8 q 359 22 379 11 q 302 49 330 39 q 247 60 274 60 q 211 45 226 60 q 193 0 195 30 l 110 0 "},"ü":{"x_min":71.109375,"x_max":747.28125,"ha":817,"o":"m 71 875 l 405 875 l 405 796 l 361 789 q 328 755 340 784 q 317 677 317 726 l 317 382 q 321 243 317 300 q 339 150 325 186 q 378 97 353 114 q 445 81 404 81 q 494 90 472 81 q 534 125 517 100 q 560 192 551 150 q 569 300 569 235 l 569 677 q 559 751 569 718 q 521 789 550 784 l 478 796 l 478 875 l 747 875 l 747 796 l 702 789 q 666 751 675 784 q 657 677 657 718 l 657 323 q 642 161 657 225 q 600 60 627 97 q 531 7 572 22 q 436 -8 490 -8 q 300 13 354 -8 q 216 79 247 35 q 172 190 184 123 q 160 348 160 257 l 160 677 q 148 755 160 726 q 115 789 136 784 l 71 796 l 71 875 m 526 1107 q 566 1091 550 1107 q 582 1048 582 1076 q 566 1005 582 1020 q 526 990 550 990 q 486 1005 502 990 q 471 1048 471 1020 q 486 1091 471 1076 q 526 1107 502 1107 m 309 1107 q 348 1091 332 1107 q 365 1048 365 1076 q 348 1005 365 1020 q 309 990 332 990 q 270 1005 285 990 q 255 1048 255 1020 q 270 1091 255 1076 q 309 1107 285 1107 "},"¯":{"x_min":43,"x_max":253,"ha":318,"o":"m 43 1072 l 253 1072 l 253 983 l 43 983 l 43 1072 "},"Z":{"x_min":77,"x_max":663,"ha":745,"o":"m 101 875 l 663 875 l 663 795 l 325 198 q 314 171 318 187 q 310 139 310 154 q 323 117 310 125 q 353 110 336 110 l 444 110 q 546 134 518 110 q 575 208 575 158 l 575 285 l 663 285 l 663 0 l 77 0 l 77 79 l 411 679 q 424 710 421 696 q 428 737 428 725 q 416 759 428 751 q 386 767 404 767 l 321 767 q 218 742 247 767 q 189 666 189 718 l 189 591 l 101 591 l 101 875 "},"u":{"x_min":71.109375,"x_max":747.28125,"ha":817,"o":"m 71 875 l 405 875 l 405 796 l 361 789 q 328 755 340 784 q 317 677 317 726 l 317 382 q 321 243 317 300 q 339 150 325 186 q 378 97 353 114 q 445 81 404 81 q 494 90 472 81 q 534 125 517 100 q 560 192 551 150 q 569 300 569 235 l 569 677 q 559 751 569 718 q 521 789 550 784 l 478 796 l 478 875 l 747 875 l 747 796 l 702 789 q 666 751 675 784 q 657 677 657 718 l 657 323 q 642 161 657 225 q 600 60 627 97 q 531 7 572 22 q 436 -8 490 -8 q 300 13 354 -8 q 216 79 247 35 q 172 190 184 123 q 160 348 160 257 l 160 677 q 148 755 160 726 q 115 789 136 784 l 71 796 l 71 875 "},"˜":{"x_min":29,"x_max":331,"ha":389,"o":"m 331 1129 q 303 1020 331 1051 q 232 990 275 990 q 159 1019 184 990 q 116 1043 135 1043 q 95 1033 103 1043 q 87 996 87 1023 l 29 996 q 58 1098 29 1067 q 127 1130 87 1130 q 170 1123 152 1130 q 198 1105 189 1116 q 221 1088 209 1095 q 244 1080 233 1080 q 264 1091 254 1080 q 274 1129 274 1102 l 331 1129 "},"Ó":{"x_min":102.609375,"x_max":679,"ha":782,"o":"m 293 271 q 296 199 293 233 q 311 137 299 164 q 340 96 322 111 q 391 81 359 81 q 441 97 422 81 q 471 140 460 114 q 485 201 481 167 q 490 271 490 235 l 490 640 q 485 697 490 669 q 471 747 481 725 q 441 781 460 768 q 391 795 422 795 q 340 781 359 795 q 311 747 322 768 q 296 697 299 725 q 293 640 293 669 l 293 271 m 679 315 q 658 191 679 250 q 601 87 638 132 q 510 17 563 43 q 391 -8 456 -8 q 272 14 326 -8 q 181 78 219 36 q 122 177 142 119 q 102 305 102 235 l 104 571 q 124 689 104 632 q 183 789 145 746 q 273 859 220 833 q 391 885 326 885 q 509 860 456 885 q 599 793 562 836 q 658 693 637 750 q 679 571 679 636 l 679 315 m 306 993 l 295 1040 l 483 1128 q 528 1132 504 1136 q 559 1098 552 1128 q 554 1053 565 1072 q 514 1030 543 1034 l 306 993 "},"k":{"x_min":73.09375,"x_max":813,"ha":885,"o":"m 162 677 q 150 755 162 726 q 117 789 138 784 l 73 796 l 73 875 l 407 875 l 407 796 l 363 789 q 330 755 342 784 q 319 677 319 726 l 319 509 q 330 514 324 509 q 338 523 335 518 l 513 750 q 525 772 525 761 q 513 784 525 779 q 488 791 502 789 l 457 796 l 457 875 l 792 875 l 792 796 l 746 789 q 710 762 730 786 q 660 701 689 739 l 486 479 l 655 197 q 708 121 682 152 q 762 86 735 90 l 813 79 l 813 0 l 457 0 l 457 79 l 487 83 q 507 112 507 87 q 501 138 507 123 q 486 168 495 152 l 379 344 l 319 266 l 319 197 q 328 119 319 148 q 364 85 338 91 l 409 79 l 409 0 l 73 0 l 73 79 l 117 85 q 152 119 142 91 q 162 197 162 148 l 162 677 "},"ˇ":{"x_min":42,"x_max":335,"ha":408,"o":"m 189 994 l 42 1104 l 62 1157 l 187 1119 l 314 1151 l 335 1097 l 189 994 "},"Ù":{"x_min":71.109375,"x_max":747.28125,"ha":817,"o":"m 71 875 l 405 875 l 405 796 l 361 789 q 328 755 340 784 q 317 677 317 726 l 317 382 q 321 243 317 300 q 339 150 325 186 q 378 97 353 114 q 445 81 404 81 q 494 90 472 81 q 534 125 517 100 q 560 192 551 150 q 569 300 569 235 l 569 677 q 559 751 569 718 q 521 789 550 784 l 478 796 l 478 875 l 747 875 l 747 796 l 702 789 q 666 751 675 784 q 657 677 657 718 l 657 323 q 642 161 657 225 q 600 60 627 97 q 531 7 572 22 q 436 -8 490 -8 q 300 13 354 -8 q 216 79 247 35 q 172 190 184 123 q 160 348 160 257 l 160 677 q 148 755 160 726 q 115 789 136 784 l 71 796 l 71 875 m 486 993 l 278 1019 q 237 1041 249 1023 q 233 1084 226 1058 q 264 1120 239 1114 q 310 1116 288 1126 l 498 1039 l 486 993 "},"Ÿ":{"x_min":75,"x_max":741.84375,"ha":811,"o":"m 75 875 l 409 875 l 409 796 l 366 789 q 337 768 343 784 q 345 727 331 751 l 434 566 l 521 723 q 532 766 536 748 q 508 789 527 784 l 465 796 l 465 875 l 741 875 l 741 796 l 694 789 q 671 771 680 786 q 650 737 661 757 l 496 458 l 496 197 q 505 119 496 148 q 541 85 515 91 l 586 79 l 586 0 l 249 0 l 249 79 l 294 85 q 330 119 320 91 q 340 197 340 148 l 340 398 l 183 697 q 148 762 163 737 q 111 790 133 787 l 75 796 l 75 875 m 523 1107 q 563 1091 547 1107 q 579 1048 579 1076 q 563 1005 579 1020 q 523 990 547 990 q 483 1005 499 990 q 468 1048 468 1020 q 483 1091 468 1076 q 523 1107 499 1107 m 306 1107 q 345 1091 329 1107 q 362 1048 362 1076 q 345 1005 362 1020 q 306 990 329 990 q 267 1005 282 990 q 252 1048 252 1020 q 267 1091 252 1076 q 306 1107 282 1107 "},"¢":{"x_min":90,"x_max":679.5,"ha":774,"o":"m 451 -8 l 361 -8 l 361 101 q 258 133 308 110 q 171 197 209 157 q 112 296 134 237 q 90 434 90 355 q 111 569 90 508 q 169 675 133 630 q 254 745 205 720 q 361 773 304 770 l 361 875 l 451 875 l 451 773 q 612 702 549 759 q 675 541 675 645 q 645 448 675 480 q 573 416 615 416 q 513 435 537 416 q 490 478 490 455 q 501 519 490 502 q 529 549 513 537 q 551 573 541 560 q 561 600 561 585 q 520 646 561 624 q 409 669 480 669 q 308 609 338 669 q 279 452 279 549 q 288 372 279 413 q 315 296 297 330 q 362 239 334 261 q 429 217 390 217 q 477 227 454 217 q 520 255 501 237 q 551 294 539 272 q 567 339 564 315 l 679 339 q 653 253 672 293 q 606 181 635 212 q 539 129 578 150 q 451 103 499 108 l 451 -8 "},"ß":{"x_min":86,"x_max":1417,"ha":1500,"o":"m 1314 614 q 1294 673 1307 646 q 1266 721 1282 701 q 1240 746 1257 733 q 1203 771 1223 760 q 1159 791 1182 783 q 1114 799 1136 799 q 1064 788 1085 799 q 1028 762 1042 778 q 1007 726 1014 746 q 1001 685 1001 705 q 1010 635 1001 655 q 1037 599 1019 614 q 1085 573 1056 585 q 1154 550 1114 561 q 1272 504 1222 529 q 1353 444 1321 479 q 1401 363 1386 410 q 1417 254 1417 317 q 1397 147 1417 196 q 1344 64 1378 98 q 1265 10 1311 29 q 1166 -8 1219 -8 q 1093 3 1126 -8 q 1036 25 1059 14 q 993 44 1012 36 q 957 53 973 53 q 928 36 940 53 q 907 0 916 19 l 838 0 l 838 299 l 907 299 q 923 246 912 271 q 950 196 933 222 q 1027 124 976 154 q 1148 95 1077 95 q 1221 126 1193 95 q 1250 200 1250 158 q 1237 251 1250 229 q 1207 288 1225 272 q 1168 315 1189 304 q 1130 332 1147 325 l 1022 376 q 888 478 928 415 q 848 646 848 542 q 867 745 848 701 q 920 820 886 789 q 1000 868 954 851 q 1097 885 1046 885 q 1161 880 1129 885 q 1212 868 1193 875 q 1245 858 1229 862 q 1276 854 1261 854 q 1298 861 1289 854 q 1314 875 1307 868 l 1382 875 l 1382 614 l 1314 614 m 563 614 q 543 673 556 646 q 515 721 531 701 q 489 746 506 733 q 451 771 472 760 q 408 791 431 783 q 362 799 385 799 q 312 788 333 799 q 276 762 290 778 q 255 726 262 746 q 249 685 249 705 q 258 635 249 655 q 285 599 267 614 q 333 573 304 585 q 402 550 362 561 q 520 504 470 529 q 601 444 569 479 q 649 363 634 410 q 665 254 665 317 q 645 147 665 196 q 592 64 626 98 q 513 10 559 29 q 414 -8 467 -8 q 341 3 374 -8 q 284 25 307 14 q 241 44 260 36 q 205 53 221 53 q 176 36 188 53 q 155 0 164 19 l 86 0 l 86 299 l 155 299 q 171 246 160 271 q 198 196 181 222 q 275 124 224 154 q 396 95 325 95 q 469 126 441 95 q 498 200 498 158 q 485 251 498 229 q 455 288 473 272 q 416 315 437 304 q 378 332 395 325 l 270 376 q 136 478 176 415 q 96 646 96 542 q 115 745 96 701 q 168 820 134 789 q 248 868 203 851 q 346 885 294 885 q 410 880 378 885 q 461 868 442 875 q 494 858 478 862 q 525 854 510 854 q 546 861 537 854 q 562 875 555 868 l 631 875 l 631 614 l 563 614 "},"é":{"x_min":73.09375,"x_max":620,"ha":715,"o":"m 319 412 l 319 184 q 338 116 319 143 q 410 89 357 89 q 470 101 447 89 q 507 135 494 114 q 526 185 520 157 q 532 245 532 214 l 532 314 l 620 314 l 620 0 l 73 0 l 73 79 l 117 85 q 152 119 142 90 q 162 197 162 148 l 162 677 q 150 755 162 726 q 117 789 138 784 l 73 796 l 73 875 l 620 875 l 620 572 l 532 572 l 532 630 q 495 749 532 709 q 410 789 459 789 q 338 764 357 789 q 319 691 319 740 l 319 511 l 456 511 l 456 412 l 319 412 m 265 979 l 254 1026 l 442 1114 q 487 1118 463 1122 q 518 1084 511 1114 q 513 1039 524 1058 q 473 1016 502 1020 l 265 979 "},"s":{"x_min":86,"x_max":665,"ha":751,"o":"m 563 614 q 543 673 556 646 q 515 721 531 701 q 489 746 506 733 q 451 771 472 760 q 408 791 431 783 q 362 799 385 799 q 312 788 333 799 q 276 762 290 778 q 255 726 262 746 q 249 685 249 705 q 258 635 249 655 q 285 599 267 614 q 333 573 304 585 q 402 550 362 561 q 520 504 470 529 q 601 444 569 479 q 649 363 634 410 q 665 254 665 317 q 645 147 665 196 q 592 64 626 98 q 513 10 559 29 q 414 -8 467 -8 q 341 3 374 -8 q 284 25 307 14 q 241 44 260 36 q 205 53 221 53 q 176 36 188 53 q 155 0 164 19 l 86 0 l 86 299 l 155 299 q 171 246 160 271 q 198 196 181 222 q 275 124 224 154 q 396 95 325 95 q 469 126 441 95 q 498 200 498 158 q 485 251 498 229 q 455 288 473 272 q 416 315 437 304 q 378 332 395 325 l 270 376 q 136 478 176 415 q 96 646 96 542 q 115 745 96 701 q 168 820 134 789 q 248 868 203 851 q 346 885 294 885 q 410 880 378 885 q 461 868 442 875 q 494 858 478 862 q 525 854 510 854 q 546 861 537 854 q 562 875 555 868 l 631 875 l 631 614 l 563 614 "},"B":{"x_min":73.09375,"x_max":733,"ha":833,"o":"m 444 97 q 493 112 472 97 q 530 151 515 127 q 552 204 544 174 q 560 263 560 234 q 527 371 560 330 q 440 412 495 412 l 319 412 l 319 196 q 331 122 319 148 q 366 97 344 97 l 444 97 m 319 508 l 444 508 q 531 540 502 508 q 560 630 560 573 q 530 736 560 696 q 465 776 500 776 l 366 776 q 319 670 319 776 l 319 508 m 162 677 q 150 755 162 726 q 117 789 138 784 l 73 796 l 73 875 l 465 875 q 660 813 594 875 q 727 643 727 751 q 718 572 727 604 q 698 518 710 541 q 672 478 686 494 q 647 454 658 462 l 647 452 q 733 262 733 381 q 669 65 733 131 q 501 0 606 0 l 73 0 l 73 79 l 117 85 q 152 119 142 91 q 162 197 162 148 l 162 677 "},"…":{"x_min":101,"x_max":1022,"ha":1153,"o":"m 944 177 q 999 149 976 177 q 1022 83 1022 122 q 999 18 1022 44 q 944 -8 976 -8 q 888 18 912 -8 q 865 83 865 44 q 888 149 865 122 q 944 177 912 177 m 560 177 q 616 149 592 177 q 640 83 640 122 q 616 19 640 46 q 560 -8 592 -8 q 505 19 528 -8 q 483 83 483 46 q 505 149 483 122 q 560 177 528 177 m 178 177 q 234 149 210 177 q 258 83 258 122 q 234 19 258 46 q 178 -8 210 -8 q 123 19 146 -8 q 101 83 101 46 q 123 149 101 122 q 178 177 146 177 "},"?":{"x_min":111,"x_max":607,"ha":699,"o":"m 343 180 q 400 152 375 180 q 425 87 425 125 q 400 20 425 46 q 344 -6 376 -6 q 288 20 312 -6 q 264 87 264 46 q 287 152 264 125 q 343 180 311 180 m 287 248 l 287 316 q 311 416 287 373 q 365 497 335 459 q 418 573 394 535 q 443 655 443 610 q 436 705 443 681 q 416 748 430 730 q 381 776 402 766 q 329 787 359 787 q 281 776 301 787 q 248 750 261 766 q 230 719 236 735 q 225 691 225 703 q 258 656 225 660 q 304 631 286 652 q 323 575 323 610 q 315 541 323 559 q 295 511 308 524 q 264 489 281 498 q 226 481 247 481 q 142 529 173 481 q 111 655 111 577 q 132 750 111 709 q 189 819 154 791 q 270 861 224 847 q 365 875 316 875 q 457 861 413 875 q 534 821 501 848 q 587 757 568 795 q 607 671 607 720 q 575 545 607 595 q 506 463 543 495 q 466 429 486 445 q 431 391 447 413 q 406 334 416 368 q 397 248 397 300 l 287 248 "},"H":{"x_min":74.09375,"x_max":790.90625,"ha":865,"o":"m 320 510 l 546 510 l 546 677 q 534 755 546 726 q 498 789 522 784 l 455 796 l 455 875 l 790 875 l 790 796 l 747 789 q 713 755 725 784 q 702 677 702 726 l 702 197 q 711 119 702 148 q 747 85 721 91 l 790 79 l 790 0 l 455 0 l 455 79 l 498 85 q 536 120 526 91 q 546 197 546 148 l 546 388 l 320 388 l 320 197 q 329 120 320 148 q 365 85 339 91 l 410 79 l 410 0 l 74 0 l 74 79 l 118 85 q 153 119 143 91 q 163 197 163 148 l 163 677 q 151 755 163 726 q 118 789 139 784 l 74 796 l 74 875 l 408 875 l 408 796 l 365 789 q 331 755 343 784 q 320 677 320 726 l 320 510 "},"î":{"x_min":73.09375,"x_max":409.28125,"ha":481,"o":"m 162 677 q 150 755 162 726 q 117 789 138 784 l 73 796 l 73 875 l 407 875 l 407 796 l 363 789 q 330 755 342 784 q 319 677 319 726 l 319 197 q 328 119 319 148 q 364 85 338 91 l 409 79 l 409 0 l 73 0 l 73 79 l 117 85 q 152 119 142 91 q 162 197 162 148 l 162 677 m 243 1155 l 389 1051 l 368 1000 l 242 1031 l 117 992 l 95 1044 l 243 1155 "},"c":{"x_min":104,"x_max":687,"ha":790,"o":"m 544 467 q 535 576 544 518 q 508 682 527 633 q 460 763 490 731 q 391 795 431 795 q 340 781 359 795 q 310 747 321 768 q 296 697 300 725 q 292 640 292 669 l 292 271 q 321 135 292 189 q 411 81 350 81 q 508 127 473 81 q 544 289 544 174 l 687 289 q 671 180 687 233 q 622 85 656 126 q 535 17 588 43 q 406 -8 481 -8 q 267 22 324 -8 q 173 102 209 53 q 120 213 137 151 q 104 339 104 275 l 104 569 q 124 680 104 623 q 181 782 144 736 q 272 856 219 828 q 391 885 326 885 q 503 858 451 885 q 539 841 520 848 q 570 834 557 834 q 587 842 581 834 q 592 879 592 851 l 687 879 l 687 467 l 544 467 "},"•":{"x_min":82,"x_max":335,"ha":378,"o":"m 208 569 q 298 531 261 569 q 335 441 335 494 q 325 393 335 416 q 298 353 315 370 q 257 325 280 335 q 208 315 234 315 q 159 325 182 315 q 118 353 136 335 q 91 393 101 370 q 82 441 82 416 q 118 531 82 494 q 208 569 155 569 "},"¥":{"x_min":53,"x_max":719.84375,"ha":788,"o":"m 318 355 l 173 355 l 173 418 l 305 418 l 161 697 q 126 762 141 737 q 89 790 111 787 l 53 796 l 53 875 l 387 875 l 387 799 l 344 795 q 314 774 321 793 q 323 728 308 756 l 418 554 l 499 724 q 509 771 511 750 q 486 794 507 791 l 443 800 l 443 875 l 719 875 l 719 797 l 672 790 q 649 772 658 787 q 628 738 639 758 l 471 418 l 615 418 l 615 355 l 474 355 l 474 292 l 615 292 l 615 229 l 474 229 l 474 197 q 483 119 474 148 q 519 85 493 91 l 564 79 l 564 0 l 227 0 l 227 79 l 272 85 q 308 119 298 91 q 318 197 318 148 l 318 229 l 173 229 l 173 292 l 318 292 l 318 355 "},"(":{"x_min":89,"x_max":341.78125,"ha":443,"o":"m 255 -85 q 191 8 222 -43 q 138 122 161 59 q 102 262 115 185 q 89 430 89 338 q 102 599 89 523 q 138 738 115 675 q 193 854 161 801 q 261 953 225 907 l 341 953 q 267 722 295 859 q 239 429 239 584 q 266 135 239 270 q 333 -85 293 0 l 255 -85 "},"U":{"x_min":71.109375,"x_max":747.28125,"ha":817,"o":"m 71 875 l 405 875 l 405 796 l 361 789 q 328 755 340 784 q 317 677 317 726 l 317 382 q 321 243 317 300 q 339 150 325 186 q 378 97 353 114 q 445 81 404 81 q 494 90 472 81 q 534 125 517 100 q 560 192 551 150 q 569 300 569 235 l 569 677 q 559 751 569 718 q 521 789 550 784 l 478 796 l 478 875 l 747 875 l 747 796 l 702 789 q 666 751 675 784 q 657 677 657 718 l 657 323 q 642 161 657 225 q 600 60 627 97 q 531 7 572 22 q 436 -8 490 -8 q 300 13 354 -8 q 216 79 247 35 q 172 190 184 123 q 160 348 160 257 l 160 677 q 148 755 160 726 q 115 789 136 784 l 71 796 l 71 875 "},"Ñ":{"x_min":74.09375,"x_max":746.890625,"ha":821,"o":"m 252 197 q 261 120 252 148 q 297 86 271 93 l 328 79 l 328 0 l 74 0 l 74 79 l 118 85 q 153 119 143 91 q 163 197 163 148 l 163 677 q 151 755 163 726 q 118 789 139 784 l 74 796 l 74 875 l 384 875 l 568 376 l 569 376 l 569 677 q 557 755 569 726 q 524 789 545 784 l 480 796 l 480 875 l 746 875 l 746 796 l 703 789 q 669 755 681 784 q 658 677 658 726 l 658 0 l 497 0 l 255 677 l 252 677 l 252 197 m 548 1129 q 520 1020 548 1051 q 449 990 492 990 q 376 1019 401 990 q 333 1043 352 1043 q 312 1033 320 1043 q 304 996 304 1023 l 246 996 q 275 1098 246 1067 q 344 1130 304 1130 q 387 1123 369 1130 q 415 1105 406 1116 q 438 1088 426 1095 q 461 1080 450 1080 q 481 1091 471 1080 q 491 1129 491 1102 l 548 1129 "},"F":{"x_min":73.09375,"x_max":661,"ha":743,"o":"m 558 630 q 544 700 558 670 q 508 750 530 730 q 461 779 487 769 q 410 789 435 789 q 338 761 357 789 q 319 691 319 733 l 319 511 l 456 511 l 456 412 l 319 412 l 319 196 q 330 123 319 148 q 378 88 342 98 l 421 79 l 421 0 l 73 0 l 73 79 l 117 85 q 152 119 142 91 q 162 197 162 148 l 162 677 q 150 755 162 726 q 117 789 138 784 l 73 796 l 73 875 l 661 875 l 661 572 l 558 572 l 558 630 "},"­":{"x_min":91,"x_max":354,"ha":389,"o":"m 91 474 l 354 474 l 354 368 l 91 368 l 91 474 "},":":{"x_min":94,"x_max":251,"ha":340,"o":"m 171 177 q 227 149 203 177 q 251 83 251 121 q 227 18 251 44 q 171 -8 203 -8 q 116 18 139 -8 q 94 83 94 44 q 116 149 94 121 q 171 177 139 177 m 171 560 q 227 532 203 560 q 251 466 251 505 q 227 401 251 427 q 171 375 203 375 q 116 401 139 375 q 94 466 94 427 q 116 532 94 505 q 171 560 139 560 "},"Û":{"x_min":71.109375,"x_max":747.28125,"ha":817,"o":"m 71 875 l 405 875 l 405 796 l 361 789 q 328 755 340 784 q 317 677 317 726 l 317 382 q 321 243 317 300 q 339 150 325 186 q 378 97 353 114 q 445 81 404 81 q 494 90 472 81 q 534 125 517 100 q 560 192 551 150 q 569 300 569 235 l 569 677 q 559 751 569 718 q 521 789 550 784 l 478 796 l 478 875 l 747 875 l 747 796 l 702 789 q 666 751 675 784 q 657 677 657 718 l 657 323 q 642 161 657 225 q 600 60 627 97 q 531 7 572 22 q 436 -8 490 -8 q 300 13 354 -8 q 216 79 247 35 q 172 190 184 123 q 160 348 160 257 l 160 677 q 148 755 160 726 q 115 789 136 784 l 71 796 l 71 875 m 425 1155 l 571 1051 l 550 1000 l 424 1031 l 299 992 l 277 1044 l 425 1155 "},"*":{"x_min":101.484375,"x_max":500.46875,"ha":549,"o":"m 228 704 q 163 730 199 719 q 102 740 127 740 q 104 777 99 758 q 119 813 109 796 q 144 844 130 830 q 174 864 158 857 q 209 814 185 840 q 265 769 233 789 q 253 836 263 801 q 230 893 244 871 q 263 909 244 904 q 302 914 283 915 q 341 908 322 913 q 375 892 361 902 q 348 838 358 871 q 339 768 339 805 q 391 810 366 785 q 429 858 416 836 q 459 839 445 853 q 483 807 473 825 q 497 771 493 790 q 500 733 501 751 q 440 730 473 737 q 375 703 407 722 q 440 680 407 687 q 500 676 473 672 q 497 639 501 658 q 483 601 493 619 q 459 569 473 583 q 429 550 445 555 q 391 599 416 573 q 339 641 366 625 q 348 571 339 604 q 375 518 358 537 q 341 501 361 507 q 302 494 322 494 q 263 499 283 494 q 230 516 244 504 q 253 573 244 539 q 265 640 263 608 q 209 595 233 621 q 174 544 185 569 q 144 565 158 551 q 119 596 130 579 q 104 632 109 614 q 102 669 99 651 q 163 679 127 669 q 228 704 199 689 "},"V":{"x_min":75,"x_max":751.3125,"ha":825,"o":"m 75 875 l 411 875 l 411 796 l 366 789 q 335 764 342 786 q 336 697 327 741 l 431 219 l 558 690 q 563 759 572 734 q 527 789 555 784 l 483 796 l 483 875 l 751 875 l 751 796 l 706 789 q 670 745 683 784 q 637 636 656 707 l 463 0 l 313 0 l 177 697 q 155 759 170 733 q 119 789 140 786 l 75 796 l 75 875 "},"å":{"x_min":65.28125,"x_max":757,"ha":831,"o":"m 445 407 l 400 619 l 394 619 l 336 407 l 445 407 m 304 283 l 293 241 q 288 138 277 178 q 323 88 300 97 l 359 79 l 359 0 l 65 0 l 65 79 l 95 88 q 120 104 108 93 q 143 137 131 115 q 165 195 154 159 q 193 284 177 230 l 352 875 l 481 875 l 645 240 q 682 134 665 166 q 718 94 700 101 l 757 79 l 757 0 l 415 0 l 415 79 l 451 88 q 488 129 479 97 q 481 241 498 162 l 472 283 l 304 283 m 413 1133 q 368 1116 385 1133 q 351 1071 351 1099 q 367 1029 351 1046 q 413 1012 384 1012 q 459 1028 441 1012 q 478 1074 478 1045 q 460 1117 478 1101 q 413 1133 443 1133 m 413 1157 q 482 1134 458 1157 q 507 1070 507 1111 q 480 1011 507 1037 q 413 986 454 986 q 347 1009 373 986 q 322 1073 322 1033 q 347 1133 322 1109 q 413 1157 373 1157 "}," ":{"x_min":0,"x_max":0,"ha":264},"0":{"x_min":89,"x_max":681,"ha":771,"o":"m 285 441 q 303 168 285 255 q 385 81 322 81 q 466 168 447 81 q 485 441 485 255 q 480 614 485 546 q 466 722 476 682 q 435 779 455 762 q 385 796 415 796 q 333 779 353 796 q 303 722 314 762 q 289 614 293 682 q 285 441 285 546 m 385 -8 q 252 23 308 -8 q 160 114 197 55 q 106 256 123 173 q 89 441 89 339 q 110 625 89 543 q 171 764 132 707 q 265 853 211 822 q 385 885 319 885 q 504 854 450 885 q 598 766 558 823 q 659 626 637 708 q 681 441 681 544 q 662 256 681 339 q 608 114 644 173 q 517 23 572 55 q 385 -8 461 -8 "},"”":{"x_min":90,"x_max":500,"ha":549,"o":"m 339 644 q 397 675 373 652 q 428 737 421 697 q 391 731 412 731 q 343 750 364 731 q 323 805 323 769 q 345 870 323 844 q 403 897 366 897 q 475 864 451 897 q 500 779 500 831 q 453 647 500 695 q 339 584 407 598 l 339 644 m 105 645 q 162 675 140 654 q 194 738 185 697 q 156 732 176 732 q 109 750 128 732 q 90 805 90 769 q 111 871 90 845 q 169 897 133 897 q 241 864 217 897 q 265 780 265 831 q 252 705 265 738 q 217 647 240 672 q 167 606 195 622 q 105 586 138 591 l 105 645 "},"ö":{"x_min":102.609375,"x_max":679,"ha":782,"o":"m 293 271 q 296 199 293 233 q 311 137 299 164 q 340 96 322 111 q 391 81 359 81 q 441 97 422 81 q 471 140 460 114 q 485 201 481 167 q 490 271 490 235 l 490 640 q 485 697 490 669 q 471 747 481 725 q 441 781 460 768 q 391 795 422 795 q 340 781 359 795 q 311 747 322 768 q 296 697 299 725 q 293 640 293 669 l 293 271 m 679 315 q 658 191 679 250 q 601 87 638 132 q 510 17 563 43 q 391 -8 456 -8 q 272 14 326 -8 q 181 78 219 36 q 122 177 142 119 q 102 305 102 235 l 104 571 q 124 689 104 632 q 183 789 145 746 q 273 859 220 833 q 391 885 326 885 q 509 860 456 885 q 599 793 562 836 q 658 693 637 750 q 679 571 679 636 l 679 315 m 495 1093 q 535 1077 519 1093 q 551 1034 551 1062 q 535 991 551 1006 q 495 976 519 976 q 455 991 471 976 q 440 1034 440 1006 q 455 1077 440 1062 q 495 1093 471 1093 m 278 1093 q 317 1077 301 1093 q 334 1034 334 1062 q 317 991 334 1006 q 278 976 301 976 q 239 991 254 976 q 224 1034 224 1006 q 239 1077 224 1062 q 278 1093 254 1093 "},"i":{"x_min":73.09375,"x_max":409.28125,"ha":481,"o":"m 162 677 q 150 755 162 726 q 117 789 138 784 l 73 796 l 73 875 l 407 875 l 407 796 l 363 789 q 330 755 342 784 q 319 677 319 726 l 319 197 q 328 119 319 148 q 364 85 338 91 l 409 79 l 409 0 l 73 0 l 73 79 l 117 85 q 152 119 142 91 q 162 197 162 148 l 162 677 "},"Õ":{"x_min":102.609375,"x_max":679,"ha":782,"o":"m 293 271 q 296 199 293 233 q 311 137 299 164 q 340 96 322 111 q 391 81 359 81 q 441 97 422 81 q 471 140 460 114 q 485 201 481 167 q 490 271 490 235 l 490 640 q 485 697 490 669 q 471 747 481 725 q 441 781 460 768 q 391 795 422 795 q 340 781 359 795 q 311 747 322 768 q 296 697 299 725 q 293 640 293 669 l 293 271 m 679 315 q 658 191 679 250 q 601 87 638 132 q 510 17 563 43 q 391 -8 456 -8 q 272 14 326 -8 q 181 78 219 36 q 122 177 142 119 q 102 305 102 235 l 104 571 q 124 689 104 632 q 183 789 145 746 q 273 859 220 833 q 391 885 326 885 q 509 860 456 885 q 599 793 562 836 q 658 693 637 750 q 679 571 679 636 l 679 315 m 535 1129 q 507 1020 535 1051 q 436 990 479 990 q 363 1019 388 990 q 320 1043 339 1043 q 299 1033 307 1043 q 291 996 291 1023 l 233 996 q 262 1098 233 1067 q 331 1130 291 1130 q 374 1123 356 1130 q 402 1105 393 1116 q 425 1088 413 1095 q 448 1080 437 1080 q 468 1091 458 1080 q 478 1129 478 1102 l 535 1129 "},"þ":{"x_min":74.09375,"x_max":727,"ha":796,"o":"m 386 545 q 338 528 356 545 q 320 462 320 511 l 320 376 q 336 339 320 350 q 368 328 352 328 l 457 328 q 528 357 498 328 q 558 436 558 387 q 529 523 558 501 q 466 545 500 545 l 386 545 m 381 788 q 358 781 370 787 q 339 762 347 776 q 325 725 331 748 q 320 664 320 701 l 431 664 q 658 616 590 664 q 727 460 727 568 q 701 346 727 390 q 634 277 675 301 q 545 243 593 252 q 450 234 496 234 l 320 234 l 320 197 q 329 120 320 148 q 365 85 339 91 l 410 79 l 410 0 l 74 0 l 74 79 l 118 85 q 153 119 143 91 q 163 197 163 148 l 163 677 q 151 755 163 726 q 118 789 139 784 l 74 796 l 74 875 l 413 875 l 413 793 l 381 788 "},"]":{"x_min":79.484375,"x_max":388,"ha":479,"o":"m 388 939 l 388 -68 l 79 -68 l 79 20 l 180 20 q 230 33 218 20 q 242 74 242 46 l 242 806 q 234 846 242 836 q 203 856 226 856 l 79 856 l 79 939 l 388 939 "},"m":{"x_min":73.09375,"x_max":858.296875,"ha":931,"o":"m 251 197 q 260 120 251 148 q 296 86 270 93 l 327 79 l 327 0 l 73 0 l 73 79 l 117 85 q 152 119 142 91 q 162 197 162 148 l 162 677 q 150 755 162 726 q 117 789 138 784 l 73 796 l 73 875 l 384 875 l 470 448 l 552 875 l 856 875 l 856 796 l 812 789 q 779 755 791 784 q 768 677 768 726 l 768 197 q 777 119 768 148 q 813 85 787 91 l 858 79 l 858 0 l 535 0 l 535 79 l 566 86 q 602 120 592 93 q 612 197 612 148 l 612 677 l 609 677 l 477 0 l 387 0 l 254 677 l 251 677 l 251 197 "},"8":{"x_min":104,"x_max":708,"ha":811,"o":"m 401 105 q 496 134 456 105 q 537 220 537 164 q 485 298 537 261 q 334 373 434 335 q 257 323 283 360 q 232 246 232 285 q 245 182 232 209 q 282 139 259 156 q 335 113 305 121 q 401 105 366 105 m 408 796 q 371 790 390 796 q 334 773 351 784 q 307 742 318 761 q 296 698 296 723 q 330 623 296 659 q 408 565 364 587 q 452 591 430 576 q 490 623 474 605 q 517 659 507 640 q 527 696 527 677 q 516 736 527 718 q 489 768 506 755 q 451 789 472 782 q 408 796 430 796 m 412 885 q 499 873 453 885 q 583 835 544 861 q 648 769 622 810 q 674 669 674 728 q 642 548 674 596 q 567 468 611 501 q 629 427 603 451 q 673 373 655 403 q 699 310 691 343 q 708 244 708 276 q 681 123 708 172 q 611 46 655 75 q 511 4 567 17 q 396 -8 455 -8 q 301 0 352 -8 q 206 33 249 8 q 133 104 162 58 q 104 223 104 150 q 141 353 104 294 q 232 444 179 412 q 158 534 185 487 q 131 655 131 580 q 154 753 131 710 q 217 825 178 796 q 307 869 255 854 q 412 885 358 885 "},"ž":{"x_min":77,"x_max":663,"ha":745,"o":"m 101 875 l 663 875 l 663 795 l 325 198 q 314 171 318 187 q 310 139 310 154 q 323 117 310 125 q 353 110 336 110 l 444 110 q 546 134 518 110 q 575 208 575 158 l 575 285 l 663 285 l 663 0 l 77 0 l 77 79 l 411 679 q 424 710 421 696 q 428 737 428 725 q 416 759 428 751 q 386 767 404 767 l 321 767 q 218 742 247 767 q 189 666 189 718 l 189 591 l 101 591 l 101 875 m 385 994 l 238 1104 l 258 1157 l 383 1119 l 510 1151 l 531 1097 l 385 994 "},"R":{"x_min":73.09375,"x_max":839,"ha":918,"o":"m 366 754 q 331 737 344 754 q 319 670 319 720 l 319 513 l 465 513 q 530 543 500 513 q 560 630 560 573 q 530 724 560 695 q 465 754 500 754 l 366 754 m 319 381 l 319 197 q 332 117 319 148 q 384 83 346 87 l 416 78 l 416 0 l 73 0 l 73 79 l 117 85 q 152 119 142 91 q 162 197 162 148 l 162 677 q 150 755 162 726 q 117 789 138 784 l 73 796 l 73 875 l 465 875 q 663 813 600 875 q 727 643 727 751 q 696 511 727 560 q 625 440 665 462 l 625 437 q 676 371 661 411 q 697 273 691 332 q 708 185 702 214 q 731 157 715 157 q 744 164 740 157 q 752 183 749 172 q 756 208 755 194 q 758 233 758 222 l 758 297 l 839 297 l 839 233 q 829 113 839 161 q 802 39 819 66 q 759 1 784 12 q 704 -10 734 -10 q 639 1 666 -10 q 593 38 612 12 q 563 106 574 63 q 544 212 551 148 q 535 273 541 243 q 517 326 528 303 q 490 365 506 350 q 449 381 473 381 l 319 381 "},"á":{"x_min":65.28125,"x_max":757,"ha":831,"o":"m 445 407 l 400 619 l 394 619 l 336 407 l 445 407 m 304 283 l 293 241 q 288 138 277 178 q 323 88 300 97 l 359 79 l 359 0 l 65 0 l 65 79 l 95 88 q 120 104 108 93 q 143 137 131 115 q 165 195 154 159 q 193 284 177 230 l 352 875 l 481 875 l 645 240 q 682 134 665 166 q 718 94 700 101 l 757 79 l 757 0 l 415 0 l 415 79 l 451 88 q 488 129 479 97 q 481 241 498 162 l 472 283 l 304 283 m 336 979 l 325 1026 l 513 1114 q 558 1118 534 1122 q 589 1084 582 1114 q 584 1039 595 1058 q 544 1016 573 1020 l 336 979 "},"o":{"x_min":102.609375,"x_max":679,"ha":782,"o":"m 293 271 q 296 199 293 233 q 311 137 299 164 q 340 96 322 111 q 391 81 359 81 q 441 97 422 81 q 471 140 460 114 q 485 201 481 167 q 490 271 490 235 l 490 640 q 485 697 490 669 q 471 747 481 725 q 441 781 460 768 q 391 795 422 795 q 340 781 359 795 q 311 747 322 768 q 296 697 299 725 q 293 640 293 669 l 293 271 m 679 315 q 658 191 679 250 q 601 87 638 132 q 510 17 563 43 q 391 -8 456 -8 q 272 14 326 -8 q 181 78 219 36 q 122 177 142 119 q 102 305 102 235 l 104 571 q 124 689 104 632 q 183 789 145 746 q 273 859 220 833 q 391 885 326 885 q 509 860 456 885 q 599 793 562 836 q 658 693 637 750 q 679 571 679 636 l 679 315 "},"5":{"x_min":106,"x_max":651,"ha":747,"o":"m 139 441 l 167 875 l 613 875 l 604 737 l 256 737 l 245 565 q 326 600 285 590 q 409 611 366 611 q 504 594 459 611 q 581 541 548 577 q 632 449 613 505 q 651 313 651 393 q 628 170 651 230 q 569 70 606 109 q 485 11 533 30 q 387 -8 437 -8 q 287 2 337 -8 q 197 38 237 12 q 131 107 157 64 q 106 216 106 150 q 128 323 106 286 q 207 359 151 359 q 274 335 253 359 q 295 279 295 311 q 284 234 295 255 q 257 200 274 212 q 237 159 237 183 q 243 143 237 154 q 263 121 250 132 q 293 103 275 111 q 333 96 311 96 q 401 114 376 96 q 440 163 427 133 q 458 232 454 194 q 463 309 463 270 q 458 367 463 334 q 441 430 454 401 q 405 480 428 460 q 344 501 381 501 q 281 489 308 501 q 227 441 254 477 l 139 441 "},"õ":{"x_min":102.609375,"x_max":679,"ha":782,"o":"m 293 271 q 296 199 293 233 q 311 137 299 164 q 340 96 322 111 q 391 81 359 81 q 441 97 422 81 q 471 140 460 114 q 485 201 481 167 q 490 271 490 235 l 490 640 q 485 697 490 669 q 471 747 481 725 q 441 781 460 768 q 391 795 422 795 q 340 781 359 795 q 311 747 322 768 q 296 697 299 725 q 293 640 293 669 l 293 271 m 679 315 q 658 191 679 250 q 601 87 638 132 q 510 17 563 43 q 391 -8 456 -8 q 272 14 326 -8 q 181 78 219 36 q 122 177 142 119 q 102 305 102 235 l 104 571 q 124 689 104 632 q 183 789 145 746 q 273 859 220 833 q 391 885 326 885 q 509 860 456 885 q 599 793 562 836 q 658 693 637 750 q 679 571 679 636 l 679 315 m 535 1129 q 507 1020 535 1051 q 436 990 479 990 q 363 1019 388 990 q 320 1043 339 1043 q 299 1033 307 1043 q 291 996 291 1023 l 233 996 q 262 1098 233 1067 q 331 1130 291 1130 q 374 1123 356 1130 q 402 1105 393 1116 q 425 1088 413 1095 q 448 1080 437 1080 q 468 1091 458 1080 q 478 1129 478 1102 l 535 1129 "},"7":{"x_min":67,"x_max":685,"ha":750,"o":"m 439 0 l 249 0 l 249 36 q 273 229 249 133 q 332 413 297 326 q 408 573 368 500 q 480 696 448 646 l 473 700 q 428 706 454 697 q 379 724 401 715 q 296 738 337 738 q 220 685 252 738 q 189 524 189 633 l 67 524 l 67 878 l 150 878 q 160 846 153 857 q 173 834 166 834 q 205 843 185 834 q 240 858 225 851 q 375 885 296 885 q 433 875 408 885 q 477 856 458 866 q 513 837 497 845 q 544 829 529 829 q 582 841 566 829 q 596 875 596 852 l 685 875 l 685 850 q 674 763 685 804 q 646 681 664 722 q 605 600 628 640 q 561 516 583 559 q 516 424 539 472 q 477 321 494 376 q 449 202 459 266 q 439 62 439 137 l 439 0 "},"K":{"x_min":73.09375,"x_max":813,"ha":885,"o":"m 162 677 q 150 755 162 726 q 117 789 138 784 l 73 796 l 73 875 l 407 875 l 407 796 l 363 789 q 330 755 342 784 q 319 677 319 726 l 319 509 q 330 514 324 509 q 338 523 335 518 l 513 750 q 525 772 525 761 q 513 784 525 779 q 488 791 502 789 l 457 796 l 457 875 l 792 875 l 792 796 l 746 789 q 710 762 730 786 q 660 701 689 739 l 486 479 l 655 197 q 708 121 682 152 q 762 86 735 90 l 813 79 l 813 0 l 457 0 l 457 79 l 487 83 q 507 112 507 87 q 501 138 507 123 q 486 168 495 152 l 379 344 l 319 266 l 319 197 q 328 119 319 148 q 364 85 338 91 l 409 79 l 409 0 l 73 0 l 73 79 l 117 85 q 152 119 142 91 q 162 197 162 148 l 162 677 "},",":{"x_min":100,"x_max":276,"ha":358,"o":"m 110 -90 q 170 -60 146 -83 q 202 4 194 -37 q 184 -2 192 -1 q 165 -4 176 -4 q 118 16 137 -4 q 100 69 100 36 q 120 141 100 112 q 177 170 140 170 q 250 135 224 170 q 276 48 276 101 q 262 -26 276 8 q 226 -87 249 -61 q 174 -130 203 -114 q 110 -151 144 -147 l 110 -90 "},"d":{"x_min":74.09375,"x_max":757,"ha":839,"o":"m 367 776 q 326 747 333 776 q 320 670 320 719 l 320 197 q 362 100 320 100 l 426 100 q 490 134 463 100 q 535 219 517 168 q 560 330 552 270 q 569 441 569 390 q 560 611 569 545 q 537 713 552 677 q 503 762 523 749 q 461 776 483 776 l 367 776 m 163 677 q 151 755 163 726 q 118 789 139 784 l 74 796 l 74 875 l 465 875 q 582 850 529 875 q 675 772 636 826 q 735 634 713 719 q 757 427 757 548 q 731 261 757 338 q 660 125 705 183 q 552 33 615 66 q 416 0 490 0 l 74 0 l 74 79 l 118 85 q 153 119 143 91 q 163 197 163 148 l 163 677 "},"¨":{"x_min":63,"x_max":390,"ha":461,"o":"m 334 1086 q 374 1070 358 1086 q 390 1027 390 1055 q 374 984 390 999 q 334 969 358 969 q 294 984 310 969 q 279 1027 279 999 q 294 1070 279 1055 q 334 1086 310 1086 m 117 1086 q 156 1070 140 1086 q 173 1027 173 1055 q 156 984 173 999 q 117 969 140 969 q 78 984 93 969 q 63 1027 63 999 q 78 1070 63 1055 q 117 1086 93 1086 "},"E":{"x_min":73.09375,"x_max":620,"ha":715,"o":"m 319 412 l 319 184 q 338 116 319 143 q 410 89 357 89 q 470 101 447 89 q 507 135 494 114 q 526 185 520 157 q 532 245 532 214 l 532 314 l 620 314 l 620 0 l 73 0 l 73 79 l 117 85 q 152 119 142 90 q 162 197 162 148 l 162 677 q 150 755 162 726 q 117 789 138 784 l 73 796 l 73 875 l 620 875 l 620 572 l 532 572 l 532 630 q 495 749 532 709 q 410 789 459 789 q 338 764 357 789 q 319 691 319 740 l 319 511 l 456 511 l 456 412 l 319 412 "},"Y":{"x_min":75,"x_max":741.84375,"ha":811,"o":"m 75 875 l 409 875 l 409 796 l 366 789 q 337 768 343 784 q 345 727 331 751 l 434 566 l 521 723 q 532 766 536 748 q 508 789 527 784 l 465 796 l 465 875 l 741 875 l 741 796 l 694 789 q 671 771 680 786 q 650 737 661 757 l 496 458 l 496 197 q 505 119 496 148 q 541 85 515 91 l 586 79 l 586 0 l 249 0 l 249 79 l 294 85 q 330 119 320 91 q 340 197 340 148 l 340 398 l 183 697 q 148 762 163 737 q 111 790 133 787 l 75 796 l 75 875 "},"Ô":{"x_min":102.609375,"x_max":679,"ha":782,"o":"m 293 271 q 296 199 293 233 q 311 137 299 164 q 340 96 322 111 q 391 81 359 81 q 441 97 422 81 q 471 140 460 114 q 485 201 481 167 q 490 271 490 235 l 490 640 q 485 697 490 669 q 471 747 481 725 q 441 781 460 768 q 391 795 422 795 q 340 781 359 795 q 311 747 322 768 q 296 697 299 725 q 293 640 293 669 l 293 271 m 679 315 q 658 191 679 250 q 601 87 638 132 q 510 17 563 43 q 391 -8 456 -8 q 272 14 326 -8 q 181 78 219 36 q 122 177 142 119 q 102 305 102 235 l 104 571 q 124 689 104 632 q 183 789 145 746 q 273 859 220 833 q 391 885 326 885 q 509 860 456 885 q 599 793 562 836 q 658 693 637 750 q 679 571 679 636 l 679 315 m 393 1141 l 539 1037 l 518 986 l 392 1017 l 267 978 l 245 1030 l 393 1141 "},"\"":{"x_min":91.640625,"x_max":443.53125,"ha":528,"o":"m 400 567 l 340 567 l 312 819 q 328 871 310 851 q 383 892 347 892 q 432 867 418 892 q 442 814 447 843 l 400 567 m 179 567 l 119 567 l 92 819 q 107 871 89 851 q 162 892 126 892 q 212 867 197 892 q 221 814 226 843 l 179 567 "},"‹":{"x_min":71,"x_max":275,"ha":315,"o":"m 205 429 l 275 250 l 200 250 l 71 429 l 200 607 l 275 607 l 205 429 "},"˙":{"x_min":39,"x_max":171,"ha":243,"o":"m 105 1140 q 152 1121 133 1140 q 171 1070 171 1102 q 152 1019 171 1037 q 105 1001 133 1001 q 58 1019 77 1001 q 39 1070 39 1037 q 58 1121 39 1102 q 105 1140 77 1140 "},"ê":{"x_min":73.09375,"x_max":620,"ha":715,"o":"m 319 412 l 319 184 q 338 116 319 143 q 410 89 357 89 q 470 101 447 89 q 507 135 494 114 q 526 185 520 157 q 532 245 532 214 l 532 314 l 620 314 l 620 0 l 73 0 l 73 79 l 117 85 q 152 119 142 90 q 162 197 162 148 l 162 677 q 150 755 162 726 q 117 789 138 784 l 73 796 l 73 875 l 620 875 l 620 572 l 532 572 l 532 630 q 495 749 532 709 q 410 789 459 789 q 338 764 357 789 q 319 691 319 740 l 319 511 l 456 511 l 456 412 l 319 412 m 373 1155 l 519 1051 l 498 1000 l 372 1031 l 247 992 l 225 1044 l 373 1155 "},"Ï":{"x_min":73,"x_max":409.28125,"ha":481,"o":"m 162 677 q 150 755 162 726 q 117 789 138 784 l 73 796 l 73 875 l 407 875 l 407 796 l 363 789 q 330 755 342 784 q 319 677 319 726 l 319 197 q 328 119 319 148 q 364 85 338 91 l 409 79 l 409 0 l 73 0 l 73 79 l 117 85 q 152 119 142 91 q 162 197 162 148 l 162 677 m 344 1093 q 384 1077 368 1093 q 400 1034 400 1062 q 384 991 400 1006 q 344 976 368 976 q 304 991 320 976 q 289 1034 289 1006 q 304 1077 289 1062 q 344 1093 320 1093 m 127 1093 q 166 1077 150 1093 q 183 1034 183 1062 q 166 991 183 1006 q 127 976 150 976 q 88 991 103 976 q 73 1034 73 1006 q 88 1077 73 1062 q 127 1093 103 1093 "},"„":{"x_min":82.21875,"x_max":490,"ha":556,"o":"m 330 -88 q 387 -59 365 -81 q 419 3 410 -37 q 381 -3 402 -3 q 334 16 353 -3 q 315 72 315 35 q 336 135 315 110 q 394 161 358 161 q 466 129 442 161 q 490 45 490 98 q 444 -86 490 -37 q 330 -148 398 -135 l 330 -88 m 96 -87 q 155 -58 132 -80 q 185 4 178 -36 q 167 0 175 1 q 148 -3 160 -3 q 101 17 121 -3 q 82 73 82 37 q 103 137 82 112 q 160 162 123 162 q 232 130 208 162 q 257 46 257 99 q 209 -86 257 -36 q 96 -147 162 -136 l 96 -87 "},"Â":{"x_min":65.28125,"x_max":757,"ha":831,"o":"m 445 407 l 400 619 l 394 619 l 336 407 l 445 407 m 304 283 l 293 241 q 288 138 277 178 q 323 88 300 97 l 359 79 l 359 0 l 65 0 l 65 79 l 95 88 q 120 104 108 93 q 143 137 131 115 q 165 195 154 159 q 193 284 177 230 l 352 875 l 481 875 l 645 240 q 682 134 665 166 q 718 94 700 101 l 757 79 l 757 0 l 415 0 l 415 79 l 451 88 q 488 129 479 97 q 481 241 498 162 l 472 283 l 304 283 m 432 1155 l 578 1051 l 557 1000 l 431 1031 l 306 992 l 284 1044 l 432 1155 "},"´":{"x_min":46,"x_max":312.671875,"ha":356,"o":"m 57 972 l 46 1019 l 234 1107 q 279 1111 255 1115 q 310 1077 303 1107 q 305 1032 316 1051 q 265 1009 294 1013 l 57 972 "},"Í":{"x_min":73.09375,"x_max":409.671875,"ha":481,"o":"m 162 677 q 150 755 162 726 q 117 789 138 784 l 73 796 l 73 875 l 407 875 l 407 796 l 363 789 q 330 755 342 784 q 319 677 319 726 l 319 197 q 328 119 319 148 q 364 85 338 91 l 409 79 l 409 0 l 73 0 l 73 79 l 117 85 q 152 119 142 91 q 162 197 162 148 l 162 677 m 154 979 l 143 1026 l 331 1114 q 376 1118 352 1122 q 407 1084 400 1114 q 402 1039 413 1058 q 362 1016 391 1020 l 154 979 "},"ì":{"x_min":73.09375,"x_max":409.28125,"ha":481,"o":"m 162 677 q 150 755 162 726 q 117 789 138 784 l 73 796 l 73 875 l 407 875 l 407 796 l 363 789 q 330 755 342 784 q 319 677 319 726 l 319 197 q 328 119 319 148 q 364 85 338 91 l 409 79 l 409 0 l 73 0 l 73 79 l 117 85 q 152 119 142 91 q 162 197 162 148 l 162 677 m 339 986 l 131 1012 q 90 1034 102 1016 q 86 1077 79 1051 q 117 1113 92 1107 q 163 1109 141 1119 l 351 1032 l 339 986 "},"Ú":{"x_min":71.109375,"x_max":747.28125,"ha":817,"o":"m 71 875 l 405 875 l 405 796 l 361 789 q 328 755 340 784 q 317 677 317 726 l 317 382 q 321 243 317 300 q 339 150 325 186 q 378 97 353 114 q 445 81 404 81 q 494 90 472 81 q 534 125 517 100 q 560 192 551 150 q 569 300 569 235 l 569 677 q 559 751 569 718 q 521 789 550 784 l 478 796 l 478 875 l 747 875 l 747 796 l 702 789 q 666 751 675 784 q 657 677 657 718 l 657 323 q 642 161 657 225 q 600 60 627 97 q 531 7 572 22 q 436 -8 490 -8 q 300 13 354 -8 q 216 79 247 35 q 172 190 184 123 q 160 348 160 257 l 160 677 q 148 755 160 726 q 115 789 136 784 l 71 796 l 71 875 m 336 979 l 325 1026 l 513 1114 q 558 1118 534 1122 q 589 1084 582 1114 q 584 1039 595 1058 q 544 1016 573 1020 l 336 979 "},"Ý":{"x_min":75,"x_max":741.84375,"ha":811,"o":"m 75 875 l 409 875 l 409 796 l 366 789 q 337 768 343 784 q 345 727 331 751 l 434 566 l 521 723 q 532 766 536 748 q 508 789 527 784 l 465 796 l 465 875 l 741 875 l 741 796 l 694 789 q 671 771 680 786 q 650 737 661 757 l 496 458 l 496 197 q 505 119 496 148 q 541 85 515 91 l 586 79 l 586 0 l 249 0 l 249 79 l 294 85 q 330 119 320 91 q 340 197 340 148 l 340 398 l 183 697 q 148 762 163 737 q 111 790 133 787 l 75 796 l 75 875 m 333 979 l 322 1026 l 510 1114 q 555 1118 531 1122 q 586 1084 579 1114 q 581 1039 592 1058 q 541 1016 570 1020 l 333 979 "},"b":{"x_min":73.09375,"x_max":733,"ha":833,"o":"m 444 97 q 493 112 472 97 q 530 151 515 127 q 552 204 544 174 q 560 263 560 234 q 527 371 560 330 q 440 412 495 412 l 319 412 l 319 196 q 331 122 319 148 q 366 97 344 97 l 444 97 m 319 508 l 444 508 q 531 540 502 508 q 560 630 560 573 q 530 736 560 696 q 465 776 500 776 l 366 776 q 319 670 319 776 l 319 508 m 162 677 q 150 755 162 726 q 117 789 138 784 l 73 796 l 73 875 l 465 875 q 660 813 594 875 q 727 643 727 751 q 718 572 727 604 q 698 518 710 541 q 672 478 686 494 q 647 454 658 462 l 647 452 q 733 262 733 381 q 669 65 733 131 q 501 0 606 0 l 73 0 l 73 79 l 117 85 q 152 119 142 91 q 162 197 162 148 l 162 677 "},"q":{"x_min":104,"x_max":831,"ha":921,"o":"m 391 81 q 465 107 440 81 q 490 164 490 133 q 481 200 490 182 q 458 232 473 218 q 424 254 444 246 q 384 263 405 263 q 313 235 334 263 q 293 167 293 207 q 320 103 293 126 q 391 81 347 81 m 293 321 q 333 351 309 343 q 385 360 356 360 q 441 348 413 360 q 490 308 469 337 l 490 640 q 485 697 490 669 q 471 747 481 725 q 441 781 460 768 q 391 795 422 795 q 340 781 359 795 q 311 747 322 768 q 296 697 299 725 q 293 640 293 669 l 293 321 m 104 571 q 124 679 104 623 q 183 780 145 735 q 273 855 220 826 q 391 885 326 885 q 509 856 456 885 q 599 782 562 828 q 658 680 637 736 q 679 571 679 625 l 679 339 q 672 248 679 289 q 662 193 666 208 q 692 155 676 172 q 733 139 708 139 q 768 166 756 139 q 782 234 780 194 q 819 194 808 227 q 831 120 831 161 q 790 9 831 47 q 687 -29 750 -29 q 620 -10 655 -29 q 560 47 584 8 q 495 7 542 23 q 391 -8 448 -8 q 260 22 315 -8 q 170 102 205 53 q 119 213 135 151 q 104 339 104 275 l 104 571 "},"Ö":{"x_min":102.609375,"x_max":679,"ha":782,"o":"m 293 271 q 296 199 293 233 q 311 137 299 164 q 340 96 322 111 q 391 81 359 81 q 441 97 422 81 q 471 140 460 114 q 485 201 481 167 q 490 271 490 235 l 490 640 q 485 697 490 669 q 471 747 481 725 q 441 781 460 768 q 391 795 422 795 q 340 781 359 795 q 311 747 322 768 q 296 697 299 725 q 293 640 293 669 l 293 271 m 679 315 q 658 191 679 250 q 601 87 638 132 q 510 17 563 43 q 391 -8 456 -8 q 272 14 326 -8 q 181 78 219 36 q 122 177 142 119 q 102 305 102 235 l 104 571 q 124 689 104 632 q 183 789 145 746 q 273 859 220 833 q 391 885 326 885 q 509 860 456 885 q 599 793 562 836 q 658 693 637 750 q 679 571 679 636 l 679 315 m 495 1093 q 535 1077 519 1093 q 551 1034 551 1062 q 535 991 551 1006 q 495 976 519 976 q 455 991 471 976 q 440 1034 440 1006 q 455 1077 440 1062 q 495 1093 471 1093 m 278 1093 q 317 1077 301 1093 q 334 1034 334 1062 q 317 991 334 1006 q 278 976 301 976 q 239 991 254 976 q 224 1034 224 1006 q 239 1077 224 1062 q 278 1093 254 1093 "},"ﬂ":{"x_min":73.09375,"x_max":1403,"ha":1492,"o":"m 906 677 q 894 755 906 726 q 861 789 882 784 l 817 796 l 817 875 l 1151 875 l 1151 796 l 1107 789 q 1074 755 1086 784 q 1063 677 1063 726 l 1063 233 q 1067 180 1063 204 q 1085 141 1072 157 q 1122 118 1099 126 q 1183 110 1146 110 q 1285 134 1256 110 q 1315 208 1315 158 l 1315 285 l 1403 285 l 1403 0 l 817 0 l 817 79 l 861 85 q 896 119 886 91 q 906 197 906 148 l 906 677 m 558 630 q 544 700 558 671 q 508 750 530 730 q 461 779 487 769 q 410 789 435 789 q 338 761 357 789 q 319 691 319 733 l 319 511 l 456 511 l 456 412 l 319 412 l 319 196 q 330 123 319 148 q 378 88 342 98 l 421 79 l 421 0 l 73 0 l 73 79 l 117 85 q 152 119 142 91 q 162 197 162 148 l 162 677 q 150 755 162 726 q 117 789 138 784 l 73 796 l 73 875 l 661 875 l 661 572 l 558 572 l 558 630 "},"z":{"x_min":77,"x_max":663,"ha":745,"o":"m 101 875 l 663 875 l 663 795 l 325 198 q 314 171 318 187 q 310 139 310 154 q 323 117 310 125 q 353 110 336 110 l 444 110 q 546 134 518 110 q 575 208 575 158 l 575 285 l 663 285 l 663 0 l 77 0 l 77 79 l 411 679 q 424 710 421 696 q 428 737 428 725 q 416 759 428 751 q 386 767 404 767 l 321 767 q 218 742 247 767 q 189 666 189 718 l 189 591 l 101 591 l 101 875 "},"™":{"x_min":67.609375,"x_max":1055.28125,"ha":1132,"o":"m 990 534 q 1000 487 990 506 q 1042 469 1010 469 l 1042 404 l 830 404 l 830 469 l 844 470 q 864 493 860 473 q 869 541 869 513 l 869 672 l 801 404 l 734 404 l 654 700 l 654 544 q 663 488 654 506 q 695 469 673 469 l 695 404 l 529 404 l 529 469 q 562 487 550 469 q 575 534 575 506 l 575 752 q 563 799 575 780 q 537 818 552 818 l 511 818 l 509 896 l 741 896 l 787 698 l 833 896 l 1055 896 l 1055 818 l 1019 815 q 990 752 990 808 l 990 534 m 335 554 q 347 495 335 512 q 365 481 354 486 q 392 473 376 476 l 392 404 l 150 404 l 150 469 q 196 489 181 471 q 211 534 211 506 l 211 748 q 206 788 211 770 q 179 806 201 806 q 156 779 159 806 q 154 717 154 751 l 154 667 l 69 667 l 67 896 l 477 896 l 477 668 l 396 668 l 396 743 q 389 794 396 778 q 362 810 382 810 q 339 790 344 810 q 335 748 335 771 l 335 554 "},"ã":{"x_min":65.28125,"x_max":757,"ha":831,"o":"m 445 407 l 400 619 l 394 619 l 336 407 l 445 407 m 304 283 l 293 241 q 288 138 277 178 q 323 88 300 97 l 359 79 l 359 0 l 65 0 l 65 79 l 95 88 q 120 104 108 93 q 143 137 131 115 q 165 195 154 159 q 193 284 177 230 l 352 875 l 481 875 l 645 240 q 682 134 665 166 q 718 94 700 101 l 757 79 l 757 0 l 415 0 l 415 79 l 451 88 q 488 129 479 97 q 481 241 498 162 l 472 283 l 304 283 m 566 1129 q 538 1020 566 1051 q 467 990 510 990 q 394 1019 419 990 q 351 1043 370 1043 q 330 1033 338 1043 q 322 996 322 1023 l 264 996 q 293 1098 264 1067 q 362 1130 322 1130 q 405 1123 387 1130 q 433 1105 424 1116 q 456 1088 444 1095 q 479 1080 468 1080 q 499 1091 489 1080 q 509 1129 509 1102 l 566 1129 "},"æ":{"x_min":52.234375,"x_max":978,"ha":1076,"o":"m 409 407 l 518 407 l 518 606 l 513 608 l 409 407 m 441 680 q 460 724 449 696 q 471 764 471 753 q 465 787 471 778 q 445 797 459 796 l 430 799 l 430 875 l 978 875 l 978 572 l 892 572 l 892 630 q 855 749 892 709 q 769 789 818 789 q 697 764 716 789 q 678 692 678 740 l 678 512 l 793 512 l 793 413 l 678 413 l 678 184 q 697 116 678 143 q 769 89 716 89 q 829 101 805 89 q 866 135 853 114 q 886 185 880 157 q 892 245 892 214 l 892 314 l 978 314 l 978 0 l 391 0 l 391 74 l 434 79 q 486 123 463 83 q 512 241 509 162 l 514 283 l 345 283 l 323 241 q 288 141 291 178 q 305 92 285 104 l 334 76 l 334 0 l 52 0 l 52 73 l 78 83 q 107 100 92 87 q 142 135 123 112 q 184 194 161 158 q 235 284 207 230 l 441 680 "},"®":{"x_min":58,"x_max":707,"ha":760,"o":"m 365 637 q 394 649 381 636 q 408 685 408 662 q 370 741 408 741 l 355 741 q 336 706 336 741 l 336 639 l 365 637 m 336 509 q 345 472 336 486 q 374 456 355 458 l 374 402 l 198 402 l 198 456 q 232 472 222 459 q 243 510 243 486 l 243 696 q 232 731 243 716 q 198 751 222 746 l 198 810 l 392 810 q 490 780 458 810 q 522 701 522 751 q 506 640 522 662 q 471 606 491 618 l 471 605 q 496 574 488 593 q 506 528 503 555 q 511 494 508 509 q 521 480 514 480 q 530 489 528 480 q 533 510 533 499 l 533 540 l 594 540 l 594 505 q 584 452 594 473 q 561 419 575 432 q 530 401 546 407 q 498 396 513 396 q 435 418 460 396 q 404 495 410 441 q 392 545 401 523 q 360 568 384 568 l 336 568 l 336 509 m 383 907 q 265 883 320 907 q 170 818 210 859 q 106 723 130 777 q 83 607 83 669 q 106 489 83 544 q 170 393 130 433 q 265 329 210 353 q 383 306 320 306 q 500 329 445 306 q 596 393 555 353 q 661 489 637 433 q 685 607 685 544 q 661 723 685 669 q 596 818 637 777 q 500 883 555 859 q 383 907 445 907 m 383 929 q 508 903 449 929 q 611 833 568 877 q 681 731 655 790 q 707 607 707 673 q 681 480 707 539 q 611 376 655 421 q 508 306 568 332 q 383 281 449 281 q 257 306 316 281 q 153 376 198 332 q 83 480 109 421 q 58 607 58 539 q 83 731 58 673 q 153 833 109 790 q 257 903 198 877 q 383 929 316 929 "},"É":{"x_min":73.09375,"x_max":620,"ha":715,"o":"m 319 412 l 319 184 q 338 116 319 143 q 410 89 357 89 q 470 101 447 89 q 507 135 494 114 q 526 185 520 157 q 532 245 532 214 l 532 314 l 620 314 l 620 0 l 73 0 l 73 79 l 117 85 q 152 119 142 90 q 162 197 162 148 l 162 677 q 150 755 162 726 q 117 789 138 784 l 73 796 l 73 875 l 620 875 l 620 572 l 532 572 l 532 630 q 495 749 532 709 q 410 789 459 789 q 338 764 357 789 q 319 691 319 740 l 319 511 l 456 511 l 456 412 l 319 412 m 265 979 l 254 1026 l 442 1114 q 487 1118 463 1122 q 518 1084 511 1114 q 513 1039 524 1058 q 473 1016 502 1020 l 265 979 "},"³":{"x_min":56,"x_max":410,"ha":483,"o":"m 346 644 q 391 605 373 634 q 410 536 410 576 q 394 475 410 502 q 354 430 379 448 q 297 402 329 412 q 231 393 265 393 q 165 399 196 393 q 109 422 134 406 q 70 463 85 438 q 56 524 56 488 q 76 587 56 560 q 133 615 96 615 q 179 599 163 615 q 194 560 194 584 q 187 534 194 545 q 170 520 180 523 q 154 495 154 516 q 169 475 154 485 q 219 465 185 465 q 272 480 247 465 q 297 531 297 495 q 271 592 297 573 q 214 612 245 612 l 214 672 q 238 677 225 673 q 264 690 252 681 q 283 712 275 698 q 291 748 291 727 q 267 809 291 788 q 207 830 243 830 q 164 816 181 830 q 147 782 147 802 q 165 762 147 766 q 187 746 178 759 q 197 713 197 733 q 179 679 197 694 q 135 664 162 664 q 79 685 99 664 q 59 755 59 707 q 73 816 59 790 q 111 860 88 842 q 166 887 135 878 q 229 897 196 897 q 293 889 262 897 q 350 865 325 881 q 390 824 375 849 q 406 762 406 798 q 386 691 406 722 q 346 647 366 660 l 346 644 "},"¡":{"x_min":103,"x_max":324,"ha":428,"o":"m 264 628 q 276 486 267 556 q 296 354 286 416 q 315 244 307 292 q 324 164 324 195 q 318 103 324 132 q 299 51 312 74 q 264 14 286 28 q 212 1 243 1 q 161 14 182 1 q 127 51 140 28 q 108 103 114 74 q 103 164 103 132 q 111 244 103 195 q 130 354 119 292 q 150 486 140 416 q 162 628 159 556 l 264 628 m 212 675 q 153 702 179 675 q 128 776 126 730 q 150 846 129 818 q 212 874 172 874 q 273 846 247 874 q 299 776 299 818 q 273 702 299 729 q 212 675 248 675 "},"[":{"x_min":96,"x_max":407.125,"ha":476,"o":"m 96 939 l 405 939 l 405 856 l 284 856 q 253 846 261 856 q 246 805 246 836 l 246 76 q 257 35 246 48 q 307 22 268 22 l 407 22 l 407 -66 l 96 -66 l 96 939 "},"L":{"x_min":73.09375,"x_max":660,"ha":756,"o":"m 162 677 q 150 755 162 726 q 117 789 138 784 l 73 796 l 73 875 l 407 875 l 407 796 l 363 789 q 330 755 342 784 q 319 677 319 726 l 319 233 q 323 180 319 204 q 341 141 328 157 q 378 118 355 126 q 439 110 402 110 q 542 134 513 110 q 572 208 572 158 l 572 285 l 660 285 l 660 0 l 73 0 l 73 79 l 117 85 q 152 119 142 91 q 162 197 162 148 l 162 677 "},";":{"x_min":97,"x_max":273,"ha":342,"o":"m 108 -90 q 167 -60 144 -83 q 199 4 191 -37 q 181 -2 190 -1 q 162 -4 173 -4 q 115 16 134 -4 q 97 69 97 36 q 117 141 97 112 q 174 170 137 170 q 247 135 221 170 q 273 48 273 101 q 259 -26 273 8 q 223 -87 246 -61 q 171 -130 201 -114 q 108 -151 141 -147 l 108 -90 m 174 560 q 230 532 206 560 q 254 466 254 505 q 230 401 254 427 q 174 375 206 375 q 119 401 142 375 q 97 466 97 427 q 119 532 97 505 q 174 560 142 560 "}," ":{"x_min":0,"x_max":0,"ha":264},"%":{"x_min":54,"x_max":962,"ha":1031,"o":"m 704 224 q 715 100 702 141 q 761 60 729 60 q 807 100 797 60 q 818 230 818 141 q 804 361 818 321 q 762 401 790 401 q 717 358 730 401 q 704 224 705 316 m 759 -14 q 611 52 659 -14 q 564 230 564 119 q 579 329 564 284 q 620 406 594 374 q 683 454 647 437 q 765 472 720 472 q 844 455 808 472 q 907 407 881 438 q 947 331 932 376 q 962 231 962 287 q 910 53 962 120 q 759 -14 858 -14 m 194 649 q 205 525 192 566 q 251 484 219 484 q 298 525 287 484 q 309 655 309 566 q 294 786 309 746 q 252 827 280 827 q 208 784 220 827 q 194 649 195 741 m 699 886 l 799 886 l 298 0 l 198 0 l 699 886 m 250 409 q 101 476 149 409 q 54 655 54 543 q 69 754 54 709 q 111 829 84 798 q 174 878 137 861 q 255 896 211 896 q 398 831 343 896 q 453 656 453 766 q 401 477 453 545 q 250 409 350 409 "},"P":{"x_min":74.09375,"x_max":729.03125,"ha":801,"o":"m 320 515 l 465 515 q 530 547 500 515 q 560 630 560 580 q 530 724 560 695 q 465 754 500 754 l 386 754 q 338 736 356 754 q 320 670 320 719 l 320 515 m 320 382 l 320 197 q 329 120 320 148 q 365 85 339 91 l 410 79 l 410 0 l 74 0 l 74 79 l 118 85 q 153 119 143 91 q 163 197 163 148 l 163 677 q 151 755 163 726 q 118 789 139 784 l 74 796 l 74 875 l 465 875 q 661 814 593 875 q 729 616 730 754 q 707 511 729 555 q 648 438 686 466 q 560 395 611 409 q 450 382 509 382 l 320 382 "},"À":{"x_min":65.28125,"x_max":757,"ha":831,"o":"m 445 407 l 400 619 l 394 619 l 336 407 l 445 407 m 304 283 l 293 241 q 288 138 277 178 q 323 88 300 97 l 359 79 l 359 0 l 65 0 l 65 79 l 95 88 q 120 104 108 93 q 143 137 131 115 q 165 195 154 159 q 193 284 177 230 l 352 875 l 481 875 l 645 240 q 682 134 665 166 q 718 94 700 101 l 757 79 l 757 0 l 415 0 l 415 79 l 451 88 q 488 129 479 97 q 481 241 498 162 l 472 283 l 304 283 m 493 993 l 285 1019 q 244 1041 256 1023 q 240 1084 233 1058 q 271 1120 246 1114 q 317 1116 295 1126 l 505 1039 l 493 993 "},"_":{"x_min":0,"x_max":694.5,"ha":695,"o":"m 694 -104 l 694 -173 l 0 -173 l 0 -104 l 694 -104 "},"ñ":{"x_min":74.09375,"x_max":746.890625,"ha":821,"o":"m 252 197 q 261 120 252 148 q 297 86 271 93 l 328 79 l 328 0 l 74 0 l 74 79 l 118 85 q 153 119 143 91 q 163 197 163 148 l 163 677 q 151 755 163 726 q 118 789 139 784 l 74 796 l 74 875 l 384 875 l 568 376 l 569 376 l 569 677 q 557 755 569 726 q 524 789 545 784 l 480 796 l 480 875 l 746 875 l 746 796 l 703 789 q 669 755 681 784 q 658 677 658 726 l 658 0 l 497 0 l 255 677 l 252 677 l 252 197 m 548 1129 q 520 1020 548 1051 q 449 990 492 990 q 376 1019 401 990 q 333 1043 352 1043 q 312 1033 320 1043 q 304 996 304 1023 l 246 996 q 275 1098 246 1067 q 344 1130 304 1130 q 387 1123 369 1130 q 415 1105 406 1116 q 438 1088 426 1095 q 461 1080 450 1080 q 481 1091 471 1080 q 491 1129 491 1102 l 548 1129 "},"‚":{"x_min":82,"x_max":256,"ha":321,"o":"m 97 -85 q 153 -54 130 -76 q 185 8 176 -32 q 147 1 171 1 q 101 20 120 1 q 82 76 82 39 q 103 139 82 114 q 161 165 125 165 q 232 133 208 165 q 256 51 256 102 q 211 -84 256 -33 q 97 -144 166 -135 l 97 -85 "},"Æ":{"x_min":52.234375,"x_max":978,"ha":1076,"o":"m 409 407 l 518 407 l 518 606 l 513 608 l 409 407 m 441 680 q 460 724 449 696 q 471 764 471 753 q 465 787 471 778 q 445 797 459 796 l 430 799 l 430 875 l 978 875 l 978 572 l 892 572 l 892 630 q 855 749 892 709 q 769 789 818 789 q 697 764 716 789 q 678 692 678 740 l 678 512 l 793 512 l 793 413 l 678 413 l 678 184 q 697 116 678 143 q 769 89 716 89 q 829 101 805 89 q 866 135 853 114 q 886 185 880 157 q 892 245 892 214 l 892 314 l 978 314 l 978 0 l 391 0 l 391 74 l 434 79 q 486 123 463 83 q 512 241 509 162 l 514 283 l 345 283 l 323 241 q 288 141 291 178 q 305 92 285 104 l 334 76 l 334 0 l 52 0 l 52 73 l 78 83 q 107 100 92 87 q 142 135 123 112 q 184 194 161 158 q 235 284 207 230 l 441 680 "},"Ë":{"x_min":73.09375,"x_max":620,"ha":715,"o":"m 319 412 l 319 184 q 338 116 319 143 q 410 89 357 89 q 470 101 447 89 q 507 135 494 114 q 526 185 520 157 q 532 245 532 214 l 532 314 l 620 314 l 620 0 l 73 0 l 73 79 l 117 85 q 152 119 142 90 q 162 197 162 148 l 162 677 q 150 755 162 726 q 117 789 138 784 l 73 796 l 73 875 l 620 875 l 620 572 l 532 572 l 532 630 q 495 749 532 709 q 410 789 459 789 q 338 764 357 789 q 319 691 319 740 l 319 511 l 456 511 l 456 412 l 319 412 m 476 1107 q 516 1091 500 1107 q 532 1048 532 1076 q 516 1005 532 1020 q 476 990 500 990 q 436 1005 452 990 q 421 1048 421 1020 q 436 1091 421 1076 q 476 1107 452 1107 m 259 1107 q 298 1091 282 1107 q 315 1048 315 1076 q 298 1005 315 1020 q 259 990 282 990 q 220 1005 235 990 q 205 1048 205 1020 q 220 1091 205 1076 q 259 1107 235 1107 "},"'":{"x_min":91.640625,"x_max":222.53125,"ha":313,"o":"m 179 568 l 119 568 l 92 819 q 107 871 89 851 q 162 892 126 892 q 211 868 197 892 q 221 815 226 844 l 179 568 "},"Š":{"x_min":86,"x_max":665,"ha":751,"o":"m 563 614 q 543 673 556 646 q 515 721 531 701 q 489 746 506 733 q 451 771 472 760 q 408 791 431 783 q 362 799 385 799 q 312 788 333 799 q 276 762 290 778 q 255 726 262 746 q 249 685 249 705 q 258 635 249 655 q 285 599 267 614 q 333 573 304 585 q 402 550 362 561 q 520 504 470 529 q 601 444 569 479 q 649 363 634 410 q 665 254 665 317 q 645 147 665 196 q 592 64 626 98 q 513 10 559 29 q 414 -8 467 -8 q 341 3 374 -8 q 284 25 307 14 q 241 44 260 36 q 205 53 221 53 q 176 36 188 53 q 155 0 164 19 l 86 0 l 86 299 l 155 299 q 171 246 160 271 q 198 196 181 222 q 275 124 224 154 q 396 95 325 95 q 469 126 441 95 q 498 200 498 158 q 485 251 498 229 q 455 288 473 272 q 416 315 437 304 q 378 332 395 325 l 270 376 q 136 478 176 415 q 96 646 96 542 q 115 745 96 701 q 168 820 134 789 q 248 868 203 851 q 346 885 294 885 q 410 880 378 885 q 461 868 442 875 q 494 858 478 862 q 525 854 510 854 q 546 861 537 854 q 562 875 555 868 l 631 875 l 631 614 l 563 614 m 389 994 l 242 1104 l 262 1157 l 387 1119 l 514 1151 l 535 1097 l 389 994 "},"ª":{"x_min":60,"x_max":525,"ha":585,"o":"m 251 636 l 306 636 l 281 734 l 278 734 l 251 636 m 326 560 l 226 560 l 218 527 q 219 488 214 508 q 240 463 225 467 l 264 458 l 264 404 l 60 404 l 60 458 l 79 463 q 108 490 96 467 q 140 570 121 512 l 244 882 l 345 882 l 452 545 q 477 488 465 506 q 500 466 488 470 l 525 458 l 525 404 l 289 404 l 289 458 l 308 463 q 331 482 325 468 q 332 529 337 495 l 326 560 "},"Œ":{"x_min":103,"x_max":946,"ha":1042,"o":"m 490 643 q 485 699 490 672 q 471 745 481 726 q 440 777 460 765 q 390 789 420 789 q 339 777 358 789 q 309 745 320 765 q 295 699 299 726 q 291 643 291 672 l 291 273 q 295 210 291 244 q 309 149 299 177 q 339 101 320 120 q 390 83 358 83 q 440 92 420 83 q 471 124 460 102 q 485 182 481 145 q 490 273 490 219 l 490 643 m 387 0 q 257 25 311 0 q 168 95 203 51 q 118 197 134 138 q 103 319 103 255 l 103 573 q 121 689 103 634 q 173 785 139 744 q 259 850 208 826 q 375 875 309 875 l 946 875 l 946 572 l 858 572 l 858 630 q 821 749 858 709 q 737 789 785 789 q 665 764 684 789 q 646 691 646 740 l 646 511 l 761 511 l 761 412 l 646 412 l 646 184 q 665 115 646 142 q 737 88 684 88 q 797 101 773 88 q 833 135 820 113 q 852 185 846 156 q 858 245 858 213 l 858 313 l 946 313 l 946 0 l 387 0 "},"˛":{"x_min":53.796875,"x_max":176,"ha":267,"o":"m 176 -308 q 128 -322 151 -322 q 90 -313 106 -322 q 63 -286 73 -304 q 54 -248 54 -269 q 60 -197 52 -223 q 88 -141 69 -172 l 134 -141 q 123 -165 127 -152 q 120 -194 120 -177 q 135 -222 120 -212 q 176 -225 151 -231 l 176 -308 "},"ð":{"x_min":76.703125,"x_max":761,"ha":839,"o":"m 324 414 l 324 197 q 366 100 324 100 l 430 100 q 494 134 467 100 q 539 219 521 168 q 564 330 556 270 q 573 441 573 390 q 564 611 573 545 q 541 713 556 677 q 507 762 527 749 q 465 776 487 776 l 371 776 q 330 747 337 776 q 324 670 324 719 l 324 513 l 475 513 l 475 414 l 324 414 m 167 414 l 76 414 l 76 513 l 167 513 l 167 677 q 108 793 167 786 l 78 795 l 78 875 l 469 875 q 586 850 533 875 q 679 772 640 826 q 739 634 717 719 q 761 427 761 548 q 735 261 761 338 q 664 125 709 183 q 556 33 619 66 q 420 0 494 0 l 78 0 l 78 79 l 122 85 q 157 120 147 91 q 167 197 167 148 l 167 414 "},"T":{"x_min":96,"x_max":693,"ha":770,"o":"m 96 875 l 693 875 l 693 525 l 611 525 l 611 603 q 606 664 611 634 q 593 720 602 695 q 568 760 583 745 q 530 776 553 776 q 499 762 511 776 q 481 728 488 748 q 474 684 475 707 q 473 641 473 660 l 473 197 q 482 119 473 148 q 520 85 492 91 l 563 79 l 563 0 l 226 0 l 226 79 l 271 85 q 307 119 297 91 q 317 197 317 148 l 317 641 q 315 684 317 660 q 307 728 314 707 q 289 762 301 748 q 258 776 278 776 q 221 760 236 776 q 196 720 205 745 q 182 664 186 695 q 178 603 178 634 l 178 525 l 96 525 l 96 875 "},"š":{"x_min":86,"x_max":665,"ha":751,"o":"m 563 614 q 543 673 556 646 q 515 721 531 701 q 489 746 506 733 q 451 771 472 760 q 408 791 431 783 q 362 799 385 799 q 312 788 333 799 q 276 762 290 778 q 255 726 262 746 q 249 685 249 705 q 258 635 249 655 q 285 599 267 614 q 333 573 304 585 q 402 550 362 561 q 520 504 470 529 q 601 444 569 479 q 649 363 634 410 q 665 254 665 317 q 645 147 665 196 q 592 64 626 98 q 513 10 559 29 q 414 -8 467 -8 q 341 3 374 -8 q 284 25 307 14 q 241 44 260 36 q 205 53 221 53 q 176 36 188 53 q 155 0 164 19 l 86 0 l 86 299 l 155 299 q 171 246 160 271 q 198 196 181 222 q 275 124 224 154 q 396 95 325 95 q 469 126 441 95 q 498 200 498 158 q 485 251 498 229 q 455 288 473 272 q 416 315 437 304 q 378 332 395 325 l 270 376 q 136 478 176 415 q 96 646 96 542 q 115 745 96 701 q 168 820 134 789 q 248 868 203 851 q 346 885 294 885 q 410 880 378 885 q 461 868 442 875 q 494 858 478 862 q 525 854 510 854 q 546 861 537 854 q 562 875 555 868 l 631 875 l 631 614 l 563 614 m 389 994 l 242 1104 l 262 1157 l 387 1119 l 514 1151 l 535 1097 l 389 994 "},"Þ":{"x_min":74.09375,"x_max":727,"ha":796,"o":"m 386 545 q 338 528 356 545 q 320 462 320 511 l 320 376 q 336 339 320 350 q 368 328 352 328 l 457 328 q 528 357 498 328 q 558 436 558 387 q 529 523 558 501 q 466 545 500 545 l 386 545 m 381 788 q 358 781 370 787 q 339 762 347 776 q 325 725 331 748 q 320 664 320 701 l 431 664 q 658 616 590 664 q 727 460 727 568 q 701 346 727 390 q 634 277 675 301 q 545 243 593 252 q 450 234 496 234 l 320 234 l 320 197 q 329 120 320 148 q 365 85 339 91 l 410 79 l 410 0 l 74 0 l 74 79 l 118 85 q 153 119 143 91 q 163 197 163 148 l 163 677 q 151 755 163 726 q 118 789 139 784 l 74 796 l 74 875 l 413 875 l 413 793 l 381 788 "},"j":{"x_min":74,"x_max":642.671875,"ha":711,"o":"m 551 290 q 541 177 551 232 q 505 82 531 123 q 433 16 478 40 q 316 -8 387 -8 q 207 10 252 -8 q 131 62 161 29 q 87 140 101 96 q 74 236 74 184 q 101 342 74 307 q 172 378 128 378 q 233 359 207 378 q 259 308 259 340 q 252 269 259 287 q 231 234 246 251 q 207 204 217 219 q 198 169 198 189 q 224 125 198 147 q 291 103 251 103 q 334 113 315 103 q 366 150 353 123 q 387 223 379 177 q 395 341 395 269 l 395 677 q 383 756 395 727 q 350 790 371 785 l 306 797 l 306 876 l 642 876 l 642 797 l 598 790 q 563 756 576 785 q 551 677 551 727 l 551 290 "},"1":{"x_min":84.4375,"x_max":462.671875,"ha":549,"o":"m 126 0 l 126 79 l 169 85 q 205 120 196 91 q 215 197 215 148 l 215 685 l 84 685 l 84 778 l 114 778 q 205 798 167 778 q 267 875 242 819 l 371 875 l 371 197 q 380 119 371 148 q 418 85 390 91 l 462 79 l 462 0 l 126 0 "},"›":{"x_min":87,"x_max":290,"ha":331,"o":"m 155 429 l 87 607 l 162 607 l 290 429 l 162 250 l 87 250 l 155 429 "},"ı":{"x_min":73.09375,"x_max":409.28125,"ha":481,"o":"m 162 677 q 150 755 162 726 q 117 789 138 784 l 73 796 l 73 875 l 407 875 l 407 796 l 363 789 q 330 755 342 784 q 319 677 319 726 l 319 197 q 328 119 319 148 q 364 85 338 91 l 409 79 l 409 0 l 73 0 l 73 79 l 117 85 q 152 119 142 91 q 162 197 162 148 l 162 677 "},"ä":{"x_min":65.28125,"x_max":757,"ha":831,"o":"m 445 407 l 400 619 l 394 619 l 336 407 l 445 407 m 304 283 l 293 241 q 288 138 277 178 q 323 88 300 97 l 359 79 l 359 0 l 65 0 l 65 79 l 95 88 q 120 104 108 93 q 143 137 131 115 q 165 195 154 159 q 193 284 177 230 l 352 875 l 481 875 l 645 240 q 682 134 665 166 q 718 94 700 101 l 757 79 l 757 0 l 415 0 l 415 79 l 451 88 q 488 129 479 97 q 481 241 498 162 l 472 283 l 304 283 m 519 1093 q 559 1077 543 1093 q 575 1034 575 1062 q 559 991 575 1006 q 519 976 543 976 q 479 991 495 976 q 464 1034 464 1006 q 479 1077 464 1062 q 519 1093 495 1093 m 302 1093 q 341 1077 325 1093 q 358 1034 358 1062 q 341 991 358 1006 q 302 976 325 976 q 263 991 278 976 q 248 1034 248 1006 q 263 1077 248 1062 q 302 1093 278 1093 "},"£":{"x_min":69.21875,"x_max":674,"ha":736,"o":"m 311 399 q 321 350 318 373 q 325 305 325 326 q 318 262 325 283 q 302 221 312 240 q 280 188 293 202 q 256 165 268 173 l 259 161 q 320 197 290 186 q 384 209 350 209 q 425 204 408 209 q 458 193 441 200 q 496 177 480 185 q 533 171 511 169 q 560 176 550 171 q 578 196 571 182 q 588 235 585 211 q 592 296 592 259 l 674 296 l 674 215 q 504 -8 674 -8 q 443 1 469 -8 q 397 22 416 11 q 332 53 368 39 q 270 67 297 67 q 222 30 226 67 q 205 5 220 18 q 158 -7 190 -7 q 109 15 126 -7 q 91 69 91 38 q 103 106 91 90 q 134 133 115 122 q 173 170 158 145 q 189 236 189 196 q 177 323 189 283 q 151 399 166 362 l 69 399 l 69 463 l 135 463 q 125 532 128 496 q 122 593 122 568 q 143 706 122 654 q 203 796 165 758 q 296 856 242 834 q 413 878 349 878 q 582 828 517 878 q 647 686 647 779 q 614 584 647 623 q 534 544 582 545 q 466 568 492 544 q 441 626 441 591 q 457 675 441 659 q 491 697 474 690 q 511 716 506 704 q 516 740 516 727 q 441 789 516 786 q 328 743 374 790 q 282 598 282 697 q 287 526 282 558 q 301 463 293 494 l 456 463 l 456 399 l 311 399 "},"¹":{"x_min":55.609375,"x_max":296,"ha":363,"o":"m 296 382 l 69 382 l 69 444 l 94 446 q 122 464 112 448 q 132 506 132 480 l 132 746 l 55 746 l 55 810 l 73 810 q 131 823 108 810 q 169 878 154 837 l 246 878 l 246 512 q 253 467 246 484 q 279 448 261 451 l 296 447 l 296 382 "},"t":{"x_min":96,"x_max":693,"ha":770,"o":"m 96 875 l 693 875 l 693 525 l 611 525 l 611 603 q 606 664 611 634 q 593 720 602 695 q 568 760 583 745 q 530 776 553 776 q 499 762 511 776 q 481 728 488 748 q 474 684 475 707 q 473 641 473 660 l 473 197 q 482 119 473 148 q 520 85 492 91 l 563 79 l 563 0 l 226 0 l 226 79 l 271 85 q 307 119 297 91 q 317 197 317 148 l 317 641 q 315 684 317 660 q 307 728 314 707 q 289 762 301 748 q 258 776 278 776 q 221 760 236 776 q 196 720 205 745 q 182 664 186 695 q 178 603 178 634 l 178 525 l 96 525 l 96 875 "},"ù":{"x_min":71.109375,"x_max":747.28125,"ha":817,"o":"m 71 875 l 405 875 l 405 796 l 361 789 q 328 755 340 784 q 317 677 317 726 l 317 382 q 321 243 317 300 q 339 150 325 186 q 378 97 353 114 q 445 81 404 81 q 494 90 472 81 q 534 125 517 100 q 560 192 551 150 q 569 300 569 235 l 569 677 q 559 751 569 718 q 521 789 550 784 l 478 796 l 478 875 l 747 875 l 747 796 l 702 789 q 666 751 675 784 q 657 677 657 718 l 657 323 q 642 161 657 225 q 600 60 627 97 q 531 7 572 22 q 436 -8 490 -8 q 300 13 354 -8 q 216 79 247 35 q 172 190 184 123 q 160 348 160 257 l 160 677 q 148 755 160 726 q 115 789 136 784 l 71 796 l 71 875 m 486 993 l 278 1019 q 237 1041 249 1023 q 233 1084 226 1058 q 264 1120 239 1114 q 310 1116 288 1126 l 498 1039 l 486 993 "},"W":{"x_min":75,"x_max":975.078125,"ha":1050,"o":"m 975 875 l 975 796 l 932 789 q 888 745 902 784 q 861 636 873 707 l 748 0 l 636 0 l 525 523 l 445 0 l 333 0 l 176 697 q 154 759 168 733 q 118 789 140 786 l 75 796 l 75 875 l 394 875 l 394 796 l 350 789 q 326 766 327 786 q 336 701 325 745 l 413 355 l 491 875 l 611 875 l 720 352 l 780 690 q 786 761 790 739 q 751 789 782 784 l 708 796 l 708 875 l 975 875 "},"ï":{"x_min":73,"x_max":409.28125,"ha":481,"o":"m 162 677 q 150 755 162 726 q 117 789 138 784 l 73 796 l 73 875 l 407 875 l 407 796 l 363 789 q 330 755 342 784 q 319 677 319 726 l 319 197 q 328 119 319 148 q 364 85 338 91 l 409 79 l 409 0 l 73 0 l 73 79 l 117 85 q 152 119 142 91 q 162 197 162 148 l 162 677 m 344 1093 q 384 1077 368 1093 q 400 1034 400 1062 q 384 991 400 1006 q 344 976 368 976 q 304 991 320 976 q 289 1034 289 1006 q 304 1077 289 1062 q 344 1093 320 1093 m 127 1093 q 166 1077 150 1093 q 183 1034 183 1062 q 166 991 183 1006 q 127 976 150 976 q 88 991 103 976 q 73 1034 73 1006 q 88 1077 73 1062 q 127 1093 103 1093 "},"v":{"x_min":75,"x_max":751.3125,"ha":825,"o":"m 75 875 l 411 875 l 411 796 l 366 789 q 335 764 342 786 q 336 697 327 741 l 431 219 l 558 690 q 563 759 572 734 q 527 789 555 784 l 483 796 l 483 875 l 751 875 l 751 796 l 706 789 q 670 745 683 784 q 637 636 656 707 l 463 0 l 313 0 l 177 697 q 155 759 170 733 q 119 789 140 786 l 75 796 l 75 875 "},"û":{"x_min":71.109375,"x_max":747.28125,"ha":817,"o":"m 71 875 l 405 875 l 405 796 l 361 789 q 328 755 340 784 q 317 677 317 726 l 317 382 q 321 243 317 300 q 339 150 325 186 q 378 97 353 114 q 445 81 404 81 q 494 90 472 81 q 534 125 517 100 q 560 192 551 150 q 569 300 569 235 l 569 677 q 559 751 569 718 q 521 789 550 784 l 478 796 l 478 875 l 747 875 l 747 796 l 702 789 q 666 751 675 784 q 657 677 657 718 l 657 323 q 642 161 657 225 q 600 60 627 97 q 531 7 572 22 q 436 -8 490 -8 q 300 13 354 -8 q 216 79 247 35 q 172 190 184 123 q 160 348 160 257 l 160 677 q 148 755 160 726 q 115 789 136 784 l 71 796 l 71 875 m 425 1155 l 571 1051 l 550 1000 l 424 1031 l 299 992 l 277 1044 l 425 1155 "},"Ò":{"x_min":102.609375,"x_max":679,"ha":782,"o":"m 293 271 q 296 199 293 233 q 311 137 299 164 q 340 96 322 111 q 391 81 359 81 q 441 97 422 81 q 471 140 460 114 q 485 201 481 167 q 490 271 490 235 l 490 640 q 485 697 490 669 q 471 747 481 725 q 441 781 460 768 q 391 795 422 795 q 340 781 359 795 q 311 747 322 768 q 296 697 299 725 q 293 640 293 669 l 293 271 m 679 315 q 658 191 679 250 q 601 87 638 132 q 510 17 563 43 q 391 -8 456 -8 q 272 14 326 -8 q 181 78 219 36 q 122 177 142 119 q 102 305 102 235 l 104 571 q 124 689 104 632 q 183 789 145 746 q 273 859 220 833 q 391 885 326 885 q 509 860 456 885 q 599 793 562 836 q 658 693 637 750 q 679 571 679 636 l 679 315 m 477 1000 l 269 1026 q 228 1048 240 1030 q 224 1091 217 1065 q 255 1127 230 1121 q 301 1123 279 1133 l 489 1046 l 477 1000 "},"&":{"x_min":82,"x_max":846,"ha":949,"o":"m 263 245 q 271 200 263 221 q 293 164 279 180 q 325 139 307 149 q 364 130 343 130 q 418 139 397 130 q 454 160 439 148 q 418 207 436 181 q 383 261 400 234 q 350 316 365 289 q 324 367 335 343 q 277 314 292 346 q 263 245 263 281 m 363 702 q 377 644 363 676 q 408 590 391 612 q 454 642 436 609 q 472 706 472 674 q 456 753 472 735 q 416 772 441 772 q 374 751 386 772 q 363 702 363 730 m 754 224 l 846 224 l 846 169 q 811 39 846 86 q 707 -8 777 -8 q 533 61 614 -8 q 433 6 487 21 q 337 -8 379 -8 q 218 14 266 -8 q 139 73 169 36 q 95 155 109 110 q 82 247 82 201 q 96 341 82 300 q 135 414 111 382 q 189 470 159 447 q 251 512 219 494 q 226 592 236 550 q 217 676 217 634 q 268 820 217 766 q 401 875 319 875 q 536 827 483 875 q 590 691 590 780 q 560 564 590 622 q 472 449 530 505 q 526 367 496 412 q 580 287 555 322 l 605 317 q 624 354 620 335 q 628 387 628 374 q 618 419 628 408 q 591 431 608 431 l 567 431 l 567 513 l 846 513 l 846 431 q 797 426 815 431 q 772 401 779 421 q 722 285 749 343 q 651 186 695 227 q 680 145 662 166 q 713 125 698 125 q 744 139 735 125 q 754 176 754 153 l 754 224 "},"˝":{"x_min":37.5,"x_max":398.75,"ha":461,"o":"m 212 1054 l 304 1168 q 345 1188 322 1190 q 384 1172 369 1187 q 398 1132 400 1157 q 365 1086 397 1107 l 255 1011 l 212 1054 m 37 1044 l 123 1163 q 164 1188 140 1187 q 205 1173 188 1188 q 220 1136 220 1161 q 190 1087 220 1111 l 79 1001 l 37 1044 "},"I":{"x_min":73.09375,"x_max":409.28125,"ha":481,"o":"m 162 677 q 150 755 162 726 q 117 789 138 784 l 73 796 l 73 875 l 407 875 l 407 796 l 363 789 q 330 755 342 784 q 319 677 319 726 l 319 197 q 328 119 319 148 q 364 85 338 91 l 409 79 l 409 0 l 73 0 l 73 79 l 117 85 q 152 119 142 91 q 162 197 162 148 l 162 677 "},"Ð":{"x_min":76.703125,"x_max":761,"ha":839,"o":"m 324 414 l 324 197 q 366 100 324 100 l 430 100 q 494 134 467 100 q 539 219 521 168 q 564 330 556 270 q 573 441 573 390 q 564 611 573 545 q 541 713 556 677 q 507 762 527 749 q 465 776 487 776 l 371 776 q 330 747 337 776 q 324 670 324 719 l 324 513 l 475 513 l 475 414 l 324 414 m 167 414 l 76 414 l 76 513 l 167 513 l 167 677 q 108 793 167 786 l 78 795 l 78 875 l 469 875 q 586 850 533 875 q 679 772 640 826 q 739 634 717 719 q 761 427 761 548 q 735 261 761 338 q 664 125 709 183 q 556 33 619 66 q 420 0 494 0 l 78 0 l 78 79 l 122 85 q 157 120 147 91 q 167 197 167 148 l 167 414 "},"ˉ":{"x_min":43,"x_max":253,"ha":318,"o":"m 43 1072 l 253 1072 l 253 983 l 43 983 l 43 1072 "},"G":{"x_min":97,"x_max":748.890625,"ha":817,"o":"m 660 0 l 586 0 q 574 17 582 10 q 555 25 566 25 q 530 19 544 25 q 498 6 515 12 q 452 -4 482 -1 q 388 -8 422 -8 q 255 22 311 -8 q 164 102 199 53 q 112 213 128 151 q 97 339 97 275 l 97 571 q 116 686 97 629 q 172 787 135 743 q 263 857 209 830 q 384 885 316 885 q 497 858 441 885 q 531 842 514 851 q 564 834 548 834 q 581 849 576 834 q 586 879 586 865 l 681 879 l 681 467 l 538 467 q 528 576 538 518 q 501 682 519 633 q 454 763 483 731 q 385 795 425 795 q 333 781 353 795 q 303 747 314 768 q 289 697 293 725 q 285 640 285 669 l 285 271 q 291 208 285 242 q 314 146 298 175 q 354 99 330 118 q 411 81 378 81 q 456 86 433 81 q 496 106 478 92 q 525 148 514 121 q 537 217 537 174 q 522 274 537 257 q 487 291 507 291 l 464 291 l 464 397 l 748 397 l 748 291 l 701 291 q 668 270 676 291 q 660 218 660 249 l 660 0 "},"`":{"x_min":47.4375,"x_max":315,"ha":367,"o":"m 303 986 l 95 1012 q 54 1034 66 1016 q 50 1077 43 1051 q 81 1113 56 1107 q 127 1109 105 1119 l 315 1032 l 303 986 "},"·":{"x_min":111,"x_max":268,"ha":354,"o":"m 188 545 q 244 517 220 545 q 268 451 268 489 q 244 386 268 412 q 188 360 220 360 q 133 386 156 360 q 111 451 111 412 q 133 517 111 489 q 188 545 156 545 "},"r":{"x_min":73.09375,"x_max":839,"ha":918,"o":"m 366 754 q 331 737 344 754 q 319 670 319 720 l 319 513 l 465 513 q 530 543 500 513 q 560 630 560 573 q 530 724 560 695 q 465 754 500 754 l 366 754 m 319 381 l 319 197 q 332 117 319 148 q 384 83 346 87 l 416 78 l 416 0 l 73 0 l 73 79 l 117 85 q 152 119 142 91 q 162 197 162 148 l 162 677 q 150 755 162 726 q 117 789 138 784 l 73 796 l 73 875 l 465 875 q 663 813 600 875 q 727 643 727 751 q 696 511 727 560 q 625 440 665 462 l 625 437 q 676 371 661 411 q 697 273 691 332 q 708 185 702 214 q 731 157 715 157 q 744 164 740 157 q 752 183 749 172 q 756 208 755 194 q 758 233 758 222 l 758 297 l 839 297 l 839 233 q 829 113 839 161 q 802 39 819 66 q 759 1 784 12 q 704 -10 734 -10 q 639 1 666 -10 q 593 38 612 12 q 563 106 574 63 q 544 212 551 148 q 535 273 541 243 q 517 326 528 303 q 490 365 506 350 q 449 381 473 381 l 319 381 "},"¿":{"x_min":78,"x_max":575,"ha":653,"o":"m 397 616 l 397 548 q 372 448 397 491 q 319 367 348 405 q 266 291 290 329 q 242 209 242 254 q 248 159 242 183 q 268 116 254 134 q 303 88 282 98 q 355 78 325 78 q 403 88 383 78 q 436 114 423 98 q 454 146 448 129 q 460 175 460 162 q 426 208 460 204 q 380 233 400 212 q 361 289 361 254 q 369 323 361 305 q 389 353 376 340 q 420 375 403 366 q 458 383 437 383 q 543 335 511 383 q 575 209 575 287 q 553 114 575 155 q 495 45 531 73 q 413 3 459 17 q 320 -10 368 -10 q 227 3 272 -10 q 150 43 183 16 q 97 107 116 69 q 78 193 78 144 q 87 262 78 230 q 110 320 96 294 q 143 366 125 346 q 179 401 161 386 q 218 435 200 419 q 252 473 237 451 q 277 530 268 496 q 289 616 287 564 l 397 616 m 254 775 q 279 848 254 822 q 338 874 305 874 q 399 845 374 874 q 425 775 425 817 q 399 703 425 733 q 338 674 374 674 q 279 703 305 674 q 254 775 254 733 "},"ý":{"x_min":75,"x_max":741.84375,"ha":811,"o":"m 75 875 l 409 875 l 409 796 l 366 789 q 337 768 343 784 q 345 727 331 751 l 434 566 l 521 723 q 532 766 536 748 q 508 789 527 784 l 465 796 l 465 875 l 741 875 l 741 796 l 694 789 q 671 771 680 786 q 650 737 661 757 l 496 458 l 496 197 q 505 119 496 148 q 541 85 515 91 l 586 79 l 586 0 l 249 0 l 249 79 l 294 85 q 330 119 320 91 q 340 197 340 148 l 340 398 l 183 697 q 148 762 163 737 q 111 790 133 787 l 75 796 l 75 875 m 333 979 l 322 1026 l 510 1114 q 555 1118 531 1122 q 586 1084 579 1114 q 581 1039 592 1058 q 541 1016 570 1020 l 333 979 "},"x":{"x_min":75,"x_max":755.6875,"ha":824,"o":"m 411 875 l 411 796 l 366 789 q 338 768 344 786 q 347 727 333 751 l 436 566 l 522 723 q 533 767 537 748 q 509 789 529 786 l 465 796 l 465 875 l 741 875 l 741 796 l 694 789 q 672 772 682 787 q 651 737 662 757 l 497 458 l 677 130 q 695 101 686 115 q 716 85 705 88 l 755 79 l 755 0 l 412 0 l 412 79 l 457 85 q 483 105 479 88 q 473 147 487 122 l 401 281 l 323 141 q 313 102 308 117 q 339 83 319 87 l 367 79 l 367 0 l 95 0 l 95 79 l 140 88 q 177 111 157 92 q 214 160 197 130 l 342 398 l 183 697 q 151 757 168 729 q 120 789 135 786 l 75 796 l 75 875 l 411 875 "},"è":{"x_min":73.09375,"x_max":620,"ha":715,"o":"m 319 412 l 319 184 q 338 116 319 143 q 410 89 357 89 q 470 101 447 89 q 507 135 494 114 q 526 185 520 157 q 532 245 532 214 l 532 314 l 620 314 l 620 0 l 73 0 l 73 79 l 117 85 q 152 119 142 90 q 162 197 162 148 l 162 677 q 150 755 162 726 q 117 789 138 784 l 73 796 l 73 875 l 620 875 l 620 572 l 532 572 l 532 630 q 495 749 532 709 q 410 789 459 789 q 338 764 357 789 q 319 691 319 740 l 319 511 l 456 511 l 456 412 l 319 412 m 450 993 l 242 1019 q 201 1041 213 1023 q 197 1084 190 1058 q 228 1120 203 1114 q 274 1116 252 1126 l 462 1039 l 450 993 "},"º":{"x_min":89,"x_max":454,"ha":528,"o":"m 329 723 q 273 807 329 807 q 229 785 241 807 q 218 723 218 763 l 218 556 q 229 494 218 519 q 272 469 241 469 q 317 494 305 469 q 329 555 329 519 l 329 723 m 89 707 q 102 780 89 746 q 140 839 115 814 q 200 878 165 864 q 276 892 234 892 q 407 840 361 892 q 454 705 454 789 l 454 577 q 444 506 454 540 q 413 445 434 472 q 357 401 391 417 q 273 386 323 386 q 188 401 223 386 q 131 445 152 417 q 99 507 109 472 q 89 580 89 543 l 89 707 "},"Ø":{"x_min":66.5,"x_max":723.453125,"ha":782,"o":"m 293 219 q 297 171 293 196 q 314 126 302 146 q 345 93 326 105 q 391 81 363 81 q 441 98 422 81 q 471 142 460 115 q 485 203 481 169 q 490 271 490 237 l 490 523 l 293 219 m 490 651 q 485 702 490 676 q 471 748 481 728 q 441 781 460 768 q 391 795 422 795 q 340 781 359 795 q 311 747 322 768 q 296 697 299 725 q 293 640 293 669 l 293 344 l 490 651 m 147 125 q 111 220 119 172 q 104 325 104 268 l 104 571 q 124 689 104 633 q 183 789 145 746 q 273 859 220 833 q 391 885 326 885 q 503 862 452 885 q 587 804 554 840 l 642 886 l 723 886 l 634 744 q 665 670 651 716 q 679 576 679 625 l 679 326 q 659 196 679 257 q 602 90 640 136 q 511 18 565 44 q 391 -8 458 -8 q 273 13 322 -8 q 194 66 224 34 l 151 0 l 66 0 l 147 125 "},"μ":{"x_min":57.046875,"x_max":728.9375,"ha":750,"o":"m 289 636 l 289 307 q 311 158 289 205 q 398 112 333 112 q 472 160 445 112 q 501 305 499 209 l 501 466 q 457 546 501 539 l 417 551 l 417 636 l 647 636 l 647 241 q 649 164 647 195 q 660 113 652 133 q 685 86 669 94 q 728 76 701 77 l 728 0 l 501 0 l 501 59 q 439 8 477 27 q 361 -10 401 -10 q 288 4 323 -10 q 225 56 252 19 q 230 15 225 35 q 241 -26 235 -4 q 253 -74 247 -49 q 259 -129 259 -100 q 250 -171 259 -153 q 229 -201 242 -189 q 203 -219 217 -212 q 176 -225 189 -225 q 123 -202 151 -225 q 96 -129 96 -179 q 102 -82 96 -104 q 117 -27 109 -60 q 132 55 125 5 q 139 185 139 105 l 140 466 q 97 547 140 540 l 57 551 l 57 636 l 289 636 "},"h":{"x_min":74.09375,"x_max":790.90625,"ha":865,"o":"m 320 510 l 546 510 l 546 677 q 534 755 546 726 q 498 789 522 784 l 455 796 l 455 875 l 790 875 l 790 796 l 747 789 q 713 755 725 784 q 702 677 702 726 l 702 197 q 711 119 702 148 q 747 85 721 91 l 790 79 l 790 0 l 455 0 l 455 79 l 498 85 q 536 120 526 91 q 546 197 546 148 l 546 388 l 320 388 l 320 197 q 329 120 320 148 q 365 85 339 91 l 410 79 l 410 0 l 74 0 l 74 79 l 118 85 q 153 119 143 91 q 163 197 163 148 l 163 677 q 151 755 163 726 q 118 789 139 784 l 74 796 l 74 875 l 408 875 l 408 796 l 365 789 q 331 755 343 784 q 320 677 320 726 l 320 510 "},".":{"x_min":94,"x_max":251,"ha":347,"o":"m 171 177 q 227 149 203 177 q 251 83 251 121 q 227 18 251 44 q 171 -8 203 -8 q 116 18 139 -8 q 94 83 94 44 q 116 149 94 121 q 171 177 139 177 "},"f":{"x_min":73.09375,"x_max":661,"ha":743,"o":"m 558 630 q 544 700 558 670 q 508 750 530 730 q 461 779 487 769 q 410 789 435 789 q 338 761 357 789 q 319 691 319 733 l 319 511 l 456 511 l 456 412 l 319 412 l 319 196 q 330 123 319 148 q 378 88 342 98 l 421 79 l 421 0 l 73 0 l 73 79 l 117 85 q 152 119 142 91 q 162 197 162 148 l 162 677 q 150 755 162 726 q 117 789 138 784 l 73 796 l 73 875 l 661 875 l 661 572 l 558 572 l 558 630 "},";":{"x_min":97,"x_max":273,"ha":342,"o":"m 108 -90 q 167 -60 144 -83 q 199 4 191 -37 q 181 -2 190 -1 q 162 -4 173 -4 q 115 16 134 -4 q 97 69 97 36 q 117 141 97 112 q 174 170 137 170 q 247 135 221 170 q 273 48 273 101 q 259 -26 273 8 q 223 -87 246 -61 q 171 -130 201 -114 q 108 -151 141 -147 l 108 -90 m 174 560 q 230 532 206 560 q 254 466 254 505 q 230 401 254 427 q 174 375 206 375 q 119 401 142 375 q 97 466 97 427 q 119 532 97 505 q 174 560 142 560 "},"“":{"x_min":97,"x_max":507,"ha":597,"o":"m 491 836 q 434 805 457 827 q 402 743 411 783 q 440 750 418 750 q 487 730 468 750 q 507 675 507 711 q 485 610 507 636 q 427 584 463 584 q 355 616 379 584 q 332 701 332 649 q 345 772 332 740 q 379 831 358 805 q 430 873 401 856 q 491 895 459 890 l 491 836 m 257 837 q 198 806 221 829 q 169 744 175 784 q 205 750 185 750 q 252 730 232 750 q 271 675 271 711 q 250 611 271 637 q 194 585 230 585 q 121 617 145 585 q 97 701 97 650 q 110 773 97 740 q 145 832 123 806 q 196 875 167 858 q 257 897 225 891 l 257 837 "},"6":{"x_min":97,"x_max":653,"ha":749,"o":"m 388 421 q 314 382 340 421 q 287 263 287 344 q 314 143 287 181 q 388 105 340 105 q 461 143 435 105 q 488 263 488 181 q 461 382 488 344 q 388 421 435 421 m 376 -8 q 252 22 305 -8 q 165 107 199 53 q 113 237 130 162 q 97 403 97 312 q 118 600 97 511 q 181 752 140 689 q 282 850 222 815 q 422 885 343 885 q 502 875 464 885 q 570 846 540 866 q 616 791 599 825 q 634 707 634 757 q 605 602 634 644 q 529 559 576 561 q 461 582 487 558 q 434 640 434 605 q 455 692 434 675 q 497 712 475 709 q 523 724 512 715 q 535 746 535 733 q 511 777 535 759 q 438 796 487 796 q 361 764 394 796 q 308 684 328 733 q 279 575 287 636 q 276 454 271 513 q 335 508 298 487 q 424 529 371 529 q 506 514 466 529 q 579 468 547 499 q 632 389 612 437 q 653 276 653 341 q 630 139 653 194 q 568 52 607 84 q 480 5 530 19 q 376 -8 430 -8 "},"A":{"x_min":65.28125,"x_max":757,"ha":831,"o":"m 445 407 l 400 619 l 394 619 l 336 407 l 445 407 m 304 283 l 293 241 q 288 138 277 178 q 323 88 300 97 l 359 79 l 359 0 l 65 0 l 65 79 l 95 88 q 120 104 108 93 q 143 137 131 115 q 165 195 154 159 q 193 284 177 230 l 352 875 l 481 875 l 645 240 q 682 134 665 166 q 718 94 700 101 l 757 79 l 757 0 l 415 0 l 415 79 l 451 88 q 488 129 479 97 q 481 241 498 162 l 472 283 l 304 283 "},"‘":{"x_min":97,"x_max":272,"ha":363,"o":"m 256 837 q 199 807 222 828 q 167 745 176 785 q 205 751 184 751 q 252 731 233 751 q 272 676 272 712 q 250 612 272 638 q 192 586 228 586 q 120 618 144 586 q 97 702 97 651 q 110 774 97 741 q 144 833 123 807 q 195 875 166 859 q 256 896 224 891 l 256 837 "},"O":{"x_min":102.609375,"x_max":679,"ha":782,"o":"m 293 271 q 296 199 293 233 q 311 137 299 164 q 340 96 322 111 q 391 81 359 81 q 441 97 422 81 q 471 140 460 114 q 485 201 481 167 q 490 271 490 235 l 490 640 q 485 697 490 669 q 471 747 481 725 q 441 781 460 768 q 391 795 422 795 q 340 781 359 795 q 311 747 322 768 q 296 697 299 725 q 293 640 293 669 l 293 271 m 679 315 q 658 191 679 250 q 601 87 638 132 q 510 17 563 43 q 391 -8 456 -8 q 272 14 326 -8 q 181 78 219 36 q 122 177 142 119 q 102 305 102 235 l 104 571 q 124 689 104 632 q 183 789 145 746 q 273 859 220 833 q 391 885 326 885 q 509 860 456 885 q 599 793 562 836 q 658 693 637 750 q 679 571 679 636 l 679 315 "},"n":{"x_min":74.09375,"x_max":746.890625,"ha":821,"o":"m 252 197 q 261 120 252 148 q 297 86 271 93 l 328 79 l 328 0 l 74 0 l 74 79 l 118 85 q 153 119 143 91 q 163 197 163 148 l 163 677 q 151 755 163 726 q 118 789 139 784 l 74 796 l 74 875 l 384 875 l 568 376 l 569 376 l 569 677 q 557 755 569 726 q 524 789 545 784 l 480 796 l 480 875 l 746 875 l 746 796 l 703 789 q 669 755 681 784 q 658 677 658 726 l 658 0 l 497 0 l 255 677 l 252 677 l 252 197 "},"3":{"x_min":104,"x_max":650,"ha":754,"o":"m 349 473 q 386 486 367 476 q 421 516 405 497 q 447 563 437 534 q 457 632 457 591 q 427 750 457 705 q 327 796 398 796 q 267 784 291 796 q 228 756 242 772 q 207 724 213 740 q 201 698 201 708 q 211 670 201 679 q 237 658 221 661 q 276 636 256 655 q 296 582 296 618 q 270 518 296 545 q 202 491 244 491 q 126 535 149 491 q 104 652 104 579 q 127 750 104 707 q 188 823 151 793 q 272 869 226 853 q 363 885 319 885 q 463 871 413 885 q 551 830 512 858 q 614 757 590 801 q 639 651 639 712 q 628 577 639 610 q 602 521 618 544 q 567 480 586 497 q 532 455 548 464 l 532 451 q 575 424 554 443 q 613 378 597 405 q 640 316 630 350 q 650 244 650 282 q 629 136 650 183 q 573 57 608 89 q 493 8 538 25 q 395 -8 447 -8 q 290 2 342 -8 q 197 38 238 12 q 129 107 155 64 q 104 215 104 150 q 127 320 104 280 q 205 359 151 359 q 273 336 251 359 q 294 283 294 312 q 281 232 294 255 q 253 200 268 208 q 228 164 228 184 q 235 142 228 154 q 257 120 243 130 q 292 102 272 109 q 339 96 312 96 q 381 102 359 96 q 421 124 402 108 q 452 167 440 140 q 464 236 464 194 q 454 318 464 287 q 427 364 444 348 q 390 384 411 379 q 349 389 369 389 l 349 473 "},"9":{"x_min":103,"x_max":676,"ha":778,"o":"m 368 796 q 293 748 319 796 q 268 619 268 701 q 294 497 268 537 q 368 458 320 458 q 440 497 413 458 q 466 619 466 537 q 440 748 466 701 q 368 796 413 796 m 355 -8 q 268 5 310 -8 q 192 45 225 19 q 139 107 159 70 q 119 189 119 143 q 123 237 119 214 q 138 277 128 260 q 164 306 148 295 q 201 317 180 317 q 267 295 245 317 q 288 249 288 273 q 259 178 288 203 q 244 157 248 168 q 240 134 240 146 q 268 100 240 120 q 349 80 296 80 q 422 111 394 80 q 463 190 449 142 q 480 298 477 239 q 479 416 483 358 q 414 364 452 381 q 330 347 376 347 q 251 362 291 347 q 177 408 211 377 q 123 487 144 440 q 103 600 103 534 q 124 736 103 682 q 182 824 146 791 q 266 871 219 857 q 362 885 312 885 q 492 853 434 885 q 591 764 551 822 q 653 621 631 705 q 676 433 676 537 q 652 238 676 321 q 586 101 628 155 q 485 19 544 46 q 355 -8 425 -8 "},"l":{"x_min":73.09375,"x_max":660,"ha":756,"o":"m 162 677 q 150 755 162 726 q 117 789 138 784 l 73 796 l 73 875 l 407 875 l 407 796 l 363 789 q 330 755 342 784 q 319 677 319 726 l 319 233 q 323 180 319 204 q 341 141 328 157 q 378 118 355 126 q 439 110 402 110 q 542 134 513 110 q 572 208 572 158 l 572 285 l 660 285 l 660 0 l 73 0 l 73 79 l 117 85 q 152 119 142 91 q 162 197 162 148 l 162 677 "},"4":{"x_min":73.859375,"x_max":660.453125,"ha":729,"o":"m 385 355 l 385 663 l 193 355 l 385 355 m 73 355 l 397 875 l 541 875 l 541 355 l 660 355 l 660 251 l 541 251 l 541 196 q 550 119 541 148 q 588 85 560 91 l 631 79 l 631 0 l 300 0 l 300 79 l 339 85 q 375 119 365 91 q 385 196 385 148 l 385 251 l 73 251 l 73 355 "},"p":{"x_min":74.09375,"x_max":729.03125,"ha":801,"o":"m 320 515 l 465 515 q 530 547 500 515 q 560 630 560 580 q 530 724 560 695 q 465 754 500 754 l 386 754 q 338 736 356 754 q 320 670 320 719 l 320 515 m 320 382 l 320 197 q 329 120 320 148 q 365 85 339 91 l 410 79 l 410 0 l 74 0 l 74 79 l 118 85 q 153 119 143 91 q 163 197 163 148 l 163 677 q 151 755 163 726 q 118 789 139 784 l 74 796 l 74 875 l 465 875 q 661 814 593 875 q 729 616 730 754 q 707 511 729 555 q 648 438 686 466 q 560 395 611 409 q 450 382 509 382 l 320 382 "},"à":{"x_min":65.28125,"x_max":757,"ha":831,"o":"m 445 407 l 400 619 l 394 619 l 336 407 l 445 407 m 304 283 l 293 241 q 288 138 277 178 q 323 88 300 97 l 359 79 l 359 0 l 65 0 l 65 79 l 95 88 q 120 104 108 93 q 143 137 131 115 q 165 195 154 159 q 193 284 177 230 l 352 875 l 481 875 l 645 240 q 682 134 665 166 q 718 94 700 101 l 757 79 l 757 0 l 415 0 l 415 79 l 451 88 q 488 129 479 97 q 481 241 498 162 l 472 283 l 304 283 m 493 993 l 285 1019 q 244 1041 256 1023 q 240 1084 233 1058 q 271 1120 246 1114 q 317 1116 295 1126 l 505 1039 l 493 993 "},"Ü":{"x_min":71.109375,"x_max":747.28125,"ha":817,"o":"m 71 875 l 405 875 l 405 796 l 361 789 q 328 755 340 784 q 317 677 317 726 l 317 382 q 321 243 317 300 q 339 150 325 186 q 378 97 353 114 q 445 81 404 81 q 494 90 472 81 q 534 125 517 100 q 560 192 551 150 q 569 300 569 235 l 569 677 q 559 751 569 718 q 521 789 550 784 l 478 796 l 478 875 l 747 875 l 747 796 l 702 789 q 666 751 675 784 q 657 677 657 718 l 657 323 q 642 161 657 225 q 600 60 627 97 q 531 7 572 22 q 436 -8 490 -8 q 300 13 354 -8 q 216 79 247 35 q 172 190 184 123 q 160 348 160 257 l 160 677 q 148 755 160 726 q 115 789 136 784 l 71 796 l 71 875 m 526 1107 q 566 1091 550 1107 q 582 1048 582 1076 q 566 1005 582 1020 q 526 990 550 990 q 486 1005 502 990 q 471 1048 471 1020 q 486 1091 471 1076 q 526 1107 502 1107 m 309 1107 q 348 1091 332 1107 q 365 1048 365 1076 q 348 1005 365 1020 q 309 990 332 990 q 270 1005 285 990 q 255 1048 255 1020 q 270 1091 255 1076 q 309 1107 285 1107 "},"ó":{"x_min":102.609375,"x_max":679,"ha":782,"o":"m 293 271 q 296 199 293 233 q 311 137 299 164 q 340 96 322 111 q 391 81 359 81 q 441 97 422 81 q 471 140 460 114 q 485 201 481 167 q 490 271 490 235 l 490 640 q 485 697 490 669 q 471 747 481 725 q 441 781 460 768 q 391 795 422 795 q 340 781 359 795 q 311 747 322 768 q 296 697 299 725 q 293 640 293 669 l 293 271 m 679 315 q 658 191 679 250 q 601 87 638 132 q 510 17 563 43 q 391 -8 456 -8 q 272 14 326 -8 q 181 78 219 36 q 122 177 142 119 q 102 305 102 235 l 104 571 q 124 689 104 632 q 183 789 145 746 q 273 859 220 833 q 391 885 326 885 q 509 860 456 885 q 599 793 562 836 q 658 693 637 750 q 679 571 679 636 l 679 315 m 306 993 l 295 1040 l 483 1128 q 528 1132 504 1136 q 559 1098 552 1128 q 554 1053 565 1072 q 514 1030 543 1034 l 306 993 "}}}
